<?xml version="1.0" ?><!DOCTYPE svg  PUBLIC '-//W3C//DTD SVG 1.1//EN'  'http://www.w3.org/Graphics/SVG/1.1/DTD/svg11.dtd'><svg height="50px" style="enable-background:new 0 0 1228.222 1692.795;" version="1.1" viewBox="0 0 1228.222 1692.795" width="50px" xml:space="preserve" xmlns="http://www.w3.org/2000/svg" xmlns:xlink="http://www.w3.org/1999/xlink"><g id="lamp"><path d="M1047.871,179.695C931.889,63.627,777.633-0.295,613.511-0.295C274.817-0.295,0.074,275.35,0.074,614.168   C0.074,835.015,114,1034.214,303,1143.537v371.077c0,98.286,77.169,178.181,174.001,178.181h274.21   c96.247,0,175.789-79.895,175.789-178.181v-371.394c188-109.355,301.295-308.438,301.295-529.052   C1228.295,450.03,1163.82,295.732,1047.871,179.695z M751.211,1559.795h-274.21c-23.56,0-42.001-20.186-42.001-45.181v-106.819h360   v106.819C795,1539.609,774.2,1559.795,751.211,1559.795z M830.957,1044.689c-22.449,11.166-35.957,34.084-35.957,59.157v171.948   H683v-423h160.174c36.49,0,66.071-29.51,66.071-66s-29.581-66-66.071-66H387.286c-36.49,0-66.07,29.51-66.07,66s29.58,66,66.07,66   H550v423H435v-171.651c0-25.09-14.938-48.011-37.408-59.174C233.86,963.633,131.777,798.56,131.777,614.168   c0-265.954,216.088-482.323,481.919-482.323c265.787,0,482.273,216.369,482.273,482.323   C1095.97,798.341,994.58,963.308,830.957,1044.689z"/></g><g id="Layer_1"/></svg>
