<?xml version="1.0" standalone="no"?>
<!DOCTYPE svg PUBLIC "-//W3C//DTD SVG 20010904//EN"
 "http://www.w3.org/TR/2001/REC-SVG-20010904/DTD/svg10.dtd">
<svg version="1.0" xmlns="http://www.w3.org/2000/svg"
 width="221.000000pt" height="104.000000pt" viewBox="0 0 221.000000 104.000000"
 preserveAspectRatio="xMidYMid meet">

<g transform="translate(0.000000,104.000000) scale(0.100000,-0.100000)"
fill="#E3DFE3" stroke="none">
<path d="M208 943 c-51 -47 -77 -103 -78 -166 0 -43 4 -53 47 -98 38 -41 45
-54 36 -67 -16 -26 -60 -39 -84 -24 -17 11 -21 9 -29 -13 -34 -91 117 -100
171 -11 32 53 25 82 -32 138 -49 47 -50 50 -44 91 12 73 53 137 87 137 13 0
18 -8 18 -30 0 -40 -36 -110 -56 -110 -23 0 -11 -24 13 -28 27 -4 88 66 100
117 10 39 1 79 -20 93 -7 4 -29 8 -49 8 -30 0 -47 -8 -80 -37z"/>
<path d="M650 920 c-16 -17 -39 -64 -55 -115 -15 -47 -31 -85 -36 -85 -4 0 -5
-25 -2 -55 5 -51 4 -55 -16 -55 -18 0 -23 6 -23 30 0 3 3 22 6 43 6 32 4 37
-12 37 -25 0 -39 -18 -44 -55 -2 -25 -9 -31 -40 -39 -48 -12 -55 -4 -31 31 29
41 34 62 22 85 -23 42 -134 1 -127 -46 3 -20 7 -21 51 -9 24 7 21 -12 -7 -50
-33 -46 -37 -64 -19 -83 13 -13 28 -15 66 -11 27 4 55 11 63 18 10 8 17 7 29
-5 23 -23 51 -20 73 9 l19 24 11 -24 c13 -27 58 -35 80 -13 9 9 15 9 24 0 16
-16 47 -15 82 3 20 11 33 12 40 5 15 -15 34 -12 56 10 19 19 20 19 20 1 0 -20
21 -33 37 -23 5 4 19 28 32 54 19 41 26 47 50 45 27 -2 28 -4 23 -39 -3 -23 0
-44 8 -53 16 -20 65 -19 100 2 26 15 29 15 45 0 21 -22 31 -21 56 4 26 26 21
55 -9 51 -29 -4 -29 12 3 134 34 129 32 174 -5 174 -23 0 -47 -58 -56 -139 -6
-54 -9 -61 -25 -56 -10 3 -29 0 -41 -7 -32 -17 -76 -18 -82 -2 -8 21 -27 17
-59 -13 -19 -19 -26 -22 -22 -10 17 42 -36 55 -71 16 -19 -21 -12 -51 11 -43
11 5 15 -1 15 -24 0 -26 -4 -30 -25 -28 -21 1 -25 6 -25 34 0 17 -3 32 -6 32
-4 0 -26 -18 -50 -40 -45 -42 -64 -49 -64 -27 0 15 34 49 68 66 14 7 22 21 22
36 0 61 -94 9 -134 -74 -29 -62 -50 -61 -54 4 -3 47 -1 51 28 69 69 40 118
162 86 211 -22 33 -52 31 -86 -5z m37 -66 c-6 -37 -35 -90 -44 -81 -3 3 2 31
11 61 19 63 42 77 33 20z m463 -194 c0 -24 -42 -70 -65 -70 -20 0 -19 34 1 51
13 11 50 33 62 38 1 1 2 -8 2 -19z"/>
<path d="M500 831 c-17 -32 -12 -61 9 -61 24 0 45 52 28 69 -16 16 -25 14 -37
-8z"/>
<path d="M104 477 c-2 -7 -3 -102 -2 -212 l3 -200 50 0 50 0 5 95 5 95 19 -43
c11 -24 23 -45 27 -48 4 -2 21 20 38 48 l31 53 0 -102 0 -103 50 0 50 0 -2
212 -3 213 -46 3 -47 3 -32 -68 -32 -68 -34 68 -34 67 -45 0 c-28 0 -48 -5
-51 -13z"/>
<path d="M467 483 c-4 -3 -7 -100 -7 -215 l0 -208 50 0 50 0 0 215 0 215 -43
0 c-24 0 -47 -3 -50 -7z"/>
<path d="M595 478 c-3 -8 -4 -103 -3 -213 l3 -200 50 0 50 0 3 73 3 72 49 0
50 0 0 -75 0 -75 50 0 50 0 -2 213 -3 212 -45 0 -45 0 -3 -77 -3 -78 -49 0
-49 0 -3 78 -3 77 -48 3 c-32 2 -49 -1 -52 -10z"/>
<path d="M1021 456 c-27 -28 -35 -45 -39 -88 l-5 -52 26 17 c18 11 37 15 54
11 22 -4 25 -3 13 5 -8 6 -23 11 -33 11 -22 0 -31 22 -23 54 4 17 16 26 43 32
55 13 88 6 119 -24 31 -30 24 -14 -15 35 -22 28 -33 33 -67 33 -33 0 -46 -6
-73 -34z"/>
<path d="M1353 470 c-55 -33 -78 -91 -78 -195 0 -81 3 -95 28 -137 42 -73 104
-96 167 -63 52 27 55 48 17 105 -29 44 -36 48 -47 35 -18 -21 -36 -19 -54 7
-29 42 -10 128 28 128 8 0 19 -7 26 -15 11 -13 18 -8 47 36 19 28 32 57 29 65
-8 22 -68 54 -101 54 -16 0 -44 -9 -62 -20z"/>
<path d="M1590 477 c-52 -26 -76 -129 -47 -200 20 -46 38 -58 101 -64 38 -4
56 -10 56 -19 0 -11 -19 -14 -80 -14 l-79 0 -6 -34 c-4 -18 -5 -44 -3 -57 3
-23 7 -24 93 -27 58 -1 99 2 115 11 53 26 76 129 46 201 -18 43 -29 50 -96 56
-40 4 -55 9 -55 20 0 12 17 16 78 18 l77 3 0 59 0 60 -87 0 c-50 0 -99 -6
-113 -13z"/>
<path d="M1885 468 c-11 -48 -75 -384 -75 -395 0 -9 16 -13 49 -13 40 0 50 3
54 20 8 29 93 29 102 0 5 -16 15 -20 56 -20 27 0 49 3 49 8 0 4 -18 100 -40
212 -22 113 -40 206 -40 208 0 1 -34 2 -75 2 -69 0 -75 -2 -80 -22z m99 -210
c7 -36 6 -38 -20 -38 -25 0 -26 2 -20 33 4 17 10 50 13 72 l7 40 7 -35 c4 -19
10 -52 13 -72z"/>
<path d="M1200 362 c0 -7 -15 -13 -32 -13 l-33 -1 30 -7 c29 -7 56 11 41 26
-3 4 -6 1 -6 -5z"/>
<path d="M1030 321 c0 -6 10 -10 23 -8 18 2 22 -2 19 -23 -3 -29 15 -16 20 15
2 16 -3 21 -29 23 -19 2 -33 -1 -33 -7z"/>
<path d="M1140 320 c0 -5 5 -10 10 -10 6 0 10 5 10 10 0 6 -4 10 -10 10 -5 0
-10 -4 -10 -10z"/>
<path d="M973 217 c7 -93 27 -144 64 -158 39 -15 106 -3 131 24 38 41 70 177
42 177 -5 0 -10 -6 -10 -13 0 -7 -6 -21 -12 -30 -12 -16 -15 -15 -41 8 -15 14
-31 23 -36 20 -5 -3 -13 -1 -16 5 -4 6 -18 1 -37 -15 -16 -14 -33 -25 -37 -25
-16 0 -31 26 -31 52 0 15 -5 28 -11 28 -8 0 -10 -22 -6 -73z m152 -9 c26 -12
29 -17 19 -42 -8 -20 -24 -21 -24 -1 0 8 -7 15 -15 15 -8 0 -15 -7 -15 -15 0
-16 -9 -19 -27 -7 -27 17 -16 37 34 61 1 1 14 -4 28 -11z"/>
</g>
</svg>
