<?xml version="1.0" standalone="no"?>
<!DOCTYPE svg PUBLIC "-//W3C//DTD SVG 20010904//EN"
 "http://www.w3.org/TR/2001/REC-SVG-20010904/DTD/svg10.dtd">
<svg version="1.0" xmlns="http://www.w3.org/2000/svg"
 width="200.000000pt" height="70.000000pt" viewBox="0 0 200.000000 70.000000"
 preserveAspectRatio="xMidYMid meet">

<g  transform="translate(0.000000,70.000000) scale(0.100000,-0.100000)"
fill="#981209" stroke="none">
<path d="M293 514 c-8 -20 13 -42 27 -28 12 12 3 44 -11 44 -5 0 -12 -7 -16
-16z"/>
<path d="M1476 513 c-9 -22 10 -41 25 -26 13 13 5 43 -10 43 -5 0 -12 -8 -15
-17z"/>
<path d="M60 380 c0 -118 2 -140 15 -140 12 0 15 18 16 103 0 99 1 101 17 78
48 -70 46 -69 78 -21 l29 44 3 -102 c2 -82 6 -102 17 -102 13 0 15 24 15 140
0 77 -4 140 -9 140 -5 0 -26 -25 -46 -55 -21 -30 -39 -55 -40 -55 -1 0 -19 25
-39 55 -20 30 -41 55 -46 55 -6 0 -10 -54 -10 -140z"/>
<path d="M360 380 c0 -118 2 -140 15 -140 11 0 15 13 15 54 0 35 5 58 15 66
26 22 45 -5 45 -66 0 -41 4 -54 15 -54 12 0 15 13 15 56 0 81 -24 119 -67 109
-22 -5 -23 -3 -23 55 0 47 -3 60 -15 60 -13 0 -15 -22 -15 -140z"/>
<path d="M1156 504 c-30 -29 -33 -84 -7 -124 6 -8 32 -17 62 -20 58 -6 82 -27
63 -57 -8 -14 -27 -19 -78 -21 -58 -3 -66 -5 -66 -22 0 -18 7 -20 69 -20 63 0
71 2 90 26 24 30 26 61 9 99 -12 26 -27 33 -87 37 -41 4 -61 29 -45 56 8 12
27 18 68 20 48 3 56 6 56 22 0 18 -7 20 -59 20 -41 0 -65 -5 -75 -16z"/>
<path d="M1540 380 c0 -118 2 -140 15 -140 13 0 15 22 15 140 0 118 -2 140
-15 140 -13 0 -15 -22 -15 -140z"/>
<path d="M1920 460 l0 -59 -28 5 c-41 8 -67 -25 -67 -87 0 -64 30 -98 72 -83
43 15 53 47 53 172 0 93 -3 112 -15 112 -12 0 -15 -13 -15 -60z m-11 -104 c17
-20 10 -67 -11 -79 -23 -15 -48 8 -48 42 0 45 35 66 59 37z"/>
<path d="M534 389 c-26 -29 -26 -109 0 -138 42 -46 91 -9 91 69 0 51 -24 90
-55 90 -9 0 -25 -9 -36 -21z m54 -31 c31 -31 0 -105 -33 -78 -25 21 -14 90 15
90 3 0 11 -5 18 -12z"/>
<path d="M664 389 c-41 -45 -15 -159 36 -159 10 0 22 6 28 13 13 16 -1 42 -17
32 -18 -11 -41 14 -41 45 0 31 23 56 41 45 16 -10 30 16 17 32 -16 19 -42 16
-64 -8z"/>
<path d="M937 392 c-24 -26 -31 -75 -18 -115 14 -41 27 -48 75 -40 l36 6 0 57
c0 89 -51 139 -93 92z m51 -34 c31 -31 0 -105 -33 -78 -25 21 -14 90 15 90 3
0 11 -5 18 -12z"/>
<path d="M1629 391 c-20 -16 -24 -29 -24 -70 0 -69 25 -95 83 -85 l42 7 0 57
c0 93 -47 135 -101 91z m60 -35 c17 -20 10 -67 -11 -79 -23 -15 -48 8 -48 42
0 45 35 66 59 37z"/>
<path d="M290 320 c0 -64 3 -80 15 -80 12 0 15 16 15 80 0 64 -3 80 -15 80
-12 0 -15 -16 -15 -80z"/>
<path d="M779 374 c-14 -38 11 -74 51 -74 17 0 30 -4 30 -10 0 -5 -18 -10 -40
-10 -33 0 -40 -3 -40 -20 0 -17 7 -20 45 -20 39 0 47 3 55 25 6 16 6 34 0 50
-8 20 -16 25 -45 25 -19 0 -35 5 -35 10 0 6 16 10 35 10 28 0 35 4 35 20 0 17
-7 20 -40 20 -35 0 -42 -4 -51 -26z"/>
<path d="M1332 383 c2 -12 14 -19 36 -21 l32 -3 -35 -43 c-51 -63 -47 -76 20
-76 48 0 55 2 55 20 0 16 -7 20 -30 20 -16 0 -30 3 -30 6 0 4 14 22 30 41 17
18 30 43 30 53 0 18 -7 20 -56 20 -47 0 -55 -3 -52 -17z"/>
<path d="M1480 320 c0 -64 3 -80 15 -80 12 0 15 16 15 80 0 64 -3 80 -15 80
-12 0 -15 -16 -15 -80z"/>
<path d="M1766 384 c-22 -22 -23 -144 -1 -144 12 0 15 13 15 60 0 33 4 60 10
60 6 0 10 9 10 20 0 24 -13 26 -34 4z"/>
</g>
</svg>
