<?xml version="1.0" standalone="no"?>
<!DOCTYPE svg PUBLIC "-//W3C//DTD SVG 20010904//EN"
 "http://www.w3.org/TR/2001/REC-SVG-20010904/DTD/svg10.dtd">
<svg version="1.0" xmlns="http://www.w3.org/2000/svg"
 width="866.000000pt" height="291.000000pt" viewBox="0 0 866.000000 291.000000"
 preserveAspectRatio="xMidYMid meet">

  <defs>
    <linearGradient id="Gradient1">
    <stop offset="0%" stop-color="#AA9FAA"/>
    <stop offset="10%" stop-color="#AA9FAA" stop-opacity=".8"/>
    <stop offset="100%" stop-color="#AA9FAA"/>
  </linearGradient>
  </defs>

<g transform="translate(0.000000,291.000000) scale(0.100000,-0.100000)"
fill="url(#Gradient1)" stroke="none">
<path d="M2100 2410 c-14 -4 -66 -8 -115 -9 -107 -1 -135 -14 -193 -84 -21
-26 -48 -54 -59 -62 -25 -17 -108 -141 -133 -197 -10 -24 -23 -78 -29 -121
-12 -89 -13 -262 -2 -291 7 -17 -11 -155 -22 -174 -5 -8 -21 -209 -21 -257 1
-52 15 -168 25 -209 6 -22 11 -59 11 -83 0 -25 6 -61 15 -80 8 -20 12 -46 9
-59 -5 -18 -2 -24 10 -24 10 0 14 -5 11 -15 -4 -8 -2 -17 4 -20 5 -4 7 -10 4
-15 -3 -5 -1 -11 5 -15 5 -3 10 -14 10 -25 0 -10 13 -32 30 -50 16 -18 28 -35
26 -39 -7 -11 6 -27 47 -60 21 -16 45 -27 53 -24 8 3 14 0 14 -7 0 -6 4 -9 9
-6 4 3 32 -3 62 -13 29 -11 65 -17 81 -16 15 2 28 0 28 -5 0 -6 8 -10 18 -10
10 0 23 -5 29 -11 8 -8 13 -8 18 1 5 8 10 8 21 -1 17 -14 19 2 2 20 -11 10 -9
12 7 10 11 -2 37 3 58 10 27 9 42 10 50 2 9 -7 21 -6 41 4 20 11 33 12 46 5
27 -14 43 -12 36 5 -3 8 0 15 7 15 7 0 21 14 30 30 10 17 24 30 30 30 7 0 20
12 29 28 9 15 28 40 42 55 14 15 26 33 26 40 0 7 9 18 19 24 27 17 51 72 56
124 6 84 26 214 36 244 16 45 24 276 11 284 -7 4 -14 54 -17 121 -3 63 -9 118
-14 123 -4 4 -11 -61 -14 -145 -7 -167 -23 -240 -64 -284 -13 -15 -33 -42 -43
-61 l-19 -35 -9 34 c-9 35 -22 53 -74 108 -20 21 -28 25 -32 14 -4 -10 -23 3
-65 43 -52 51 -57 59 -43 69 16 12 16 13 0 19 -26 10 -48 -1 -48 -26 0 -12 -8
-23 -20 -26 -11 -3 -20 -12 -20 -19 0 -10 -6 -8 -20 6 -12 12 -18 25 -16 29 7
11 -23 71 -35 71 -5 0 -9 -4 -9 -9 0 -5 -9 -11 -20 -14 -20 -5 -28 -27 -10
-27 6 0 10 -4 10 -10 0 -15 -36 -12 -49 4 -15 18 -4 64 19 76 10 5 23 22 29
37 7 16 18 39 26 53 7 14 19 53 26 86 11 55 11 64 -4 79 -35 34 -68 83 -65 96
2 8 -15 18 -42 26 -25 8 -65 20 -90 28 -46 15 -105 22 -129 14 -22 -6 -43 87
-30 128 6 18 8 41 4 51 -3 11 4 41 15 67 12 27 19 54 16 62 -6 15 42 43 76 43
13 1 41 9 63 20 22 11 49 20 60 20 11 0 49 6 84 14 54 11 71 11 109 0 25 -8
70 -14 100 -14 71 0 113 -21 188 -95 74 -73 106 -145 110 -250 3 -76 21 -235
27 -242 3 -2 8 33 11 77 14 158 -19 317 -80 388 -19 22 -34 43 -34 47 0 4 -20
29 -44 56 -24 27 -57 69 -74 94 -16 24 -50 60 -76 79 -48 37 -96 45 -156 26z
m-225 -659 c11 -6 46 -15 78 -21 35 -7 57 -16 57 -25 0 -7 2 -19 5 -27 3 -7 1
-19 -4 -27 -7 -11 -14 -8 -34 15 -24 28 -29 29 -106 29 -80 -1 -131 -16 -131
-41 0 -16 21 -23 95 -30 61 -6 62 -5 69 21 6 22 9 25 21 15 20 -16 19 -27 -2
-34 -10 -3 2 -3 27 -1 38 3 46 1 46 -13 0 -9 4 -27 8 -39 5 -17 3 -23 -8 -23
-8 0 -14 -8 -14 -17 1 -10 -6 -34 -15 -53 -9 -19 -21 -55 -27 -79 -10 -39 -9
-47 9 -72 l21 -28 -33 -25 c-17 -15 -37 -30 -43 -36 -7 -5 -15 -6 -18 -2 -4 3
-11 0 -16 -8 -5 -8 -13 -15 -17 -16 -21 -1 -81 -47 -86 -64 -6 -23 -39 -39
-44 -23 -2 6 -13 21 -24 34 -10 12 -19 30 -19 40 0 10 -9 21 -20 24 -11 3 -22
16 -25 28 -46 204 -49 380 -7 445 19 29 34 28 26 -3 -3 -14 -2 -25 3 -25 16 0
93 71 88 80 -3 5 9 13 27 18 32 8 72 2 113 -17z m-55 -107 c0 -8 -4 -12 -10
-9 -5 3 -10 10 -10 16 0 5 5 9 10 9 6 0 10 -7 10 -16z m403 -481 c15 -7 27
-15 27 -17 0 -4 -45 -6 -212 -9 -98 -2 -101 8 -10 34 64 18 151 14 195 -8z
m54 -56 c17 -9 34 -25 37 -34 9 -31 -19 -111 -50 -145 -29 -32 -73 -70 -75
-65 -4 12 -8 52 -12 102 -2 33 -8 60 -13 60 -5 0 -13 3 -19 6 -9 6 -56 4 -62
-1 -2 -2 -6 -3 -10 -4 -20 -4 -34 -19 -29 -32 3 -8 -1 -14 -9 -14 -8 0 -12 -6
-9 -14 3 -8 12 -12 20 -9 17 6 18 -14 2 -50 -15 -31 -21 -33 -38 -12 -7 8 -26
15 -42 15 -19 0 -40 11 -63 35 -19 19 -35 39 -35 45 0 5 -7 10 -15 10 -24 0
-19 53 8 77 29 27 46 32 80 22 16 -5 25 -4 22 2 -8 12 -15 10 89 15 49 2 91 6
93 8 10 10 101 -2 130 -17z"/>
<path d="M3425 2294 c-49 -25 -121 -102 -151 -163 -24 -48 -28 -68 -28 -141 0
-78 4 -93 42 -182 44 -101 49 -131 30 -173 -15 -34 -72 -69 -102 -61 -22 5
-46 42 -46 71 0 8 14 30 31 49 37 43 33 76 -10 76 -47 0 -91 -65 -91 -133 1
-42 33 -113 58 -126 12 -6 45 -11 75 -11 66 0 111 27 144 85 36 63 31 117 -22
245 -57 138 -59 182 -12 271 32 62 101 129 133 129 60 0 -9 -130 -98 -186 -30
-19 -38 -30 -38 -54 0 -28 3 -30 35 -30 28 0 43 9 83 49 124 124 141 301 30
301 -18 0 -46 -7 -63 -16z"/>
<path d="M3983 2278 c-87 -94 -258 -562 -251 -688 l3 -55 36 -3 c42 -4 60 16
104 110 31 66 33 98 5 98 -14 0 -28 -17 -51 -61 -16 -34 -32 -59 -34 -57 -14
14 31 116 90 203 128 187 206 388 179 459 -9 24 -57 20 -81 -6z m-3 -155 c-28
-71 -88 -193 -95 -193 -7 0 39 121 76 196 37 80 51 77 19 -3z"/>
<path d="M4657 2157 c-19 -45 -47 -122 -63 -170 -26 -81 -30 -87 -55 -87 -31
0 -85 -40 -94 -70 -4 -13 -15 -20 -33 -20 -14 0 -36 -10 -49 -22 -30 -28 -29
-11 2 32 51 69 19 117 -39 61 -32 -31 -34 -31 -39 -12 -9 36 -44 26 -70 -21
-24 -41 -63 -153 -87 -246 -9 -36 -14 -41 -26 -32 -20 17 -18 55 10 151 39
138 32 199 -24 199 -58 0 -118 -78 -154 -199 -18 -62 -21 -153 -6 -182 14 -25
62 -25 85 1 19 20 19 20 31 -10 12 -28 16 -30 67 -30 l54 0 23 63 c37 104 90
190 90 147 0 -15 73 -12 95 4 20 13 20 12 17 -69 -3 -49 1 -91 7 -104 17 -31
64 -28 90 6 12 14 23 24 24 22 2 -2 8 -16 15 -31 8 -20 19 -28 36 -28 32 0 41
28 21 66 -8 16 -15 43 -15 60 0 54 48 218 116 400 36 95 64 181 60 189 -3 8
-16 15 -30 15 -21 0 -29 -11 -59 -83z m-583 -339 c-45 -149 -94 -244 -94 -186
0 33 34 132 61 174 23 39 44 46 33 12z m461 -15 c-13 -52 -66 -183 -77 -189
-19 -12 -2 99 22 147 12 24 27 50 32 57 18 21 31 13 23 -15z"/>
<path d="M3776 2101 c-10 -11 -20 -38 -23 -60 -6 -40 -5 -41 25 -41 25 0 35 6
47 31 33 63 -5 118 -49 70z"/>
<path d="M6915 1357 c-181 -414 -330 -755 -332 -759 -2 -4 36 -27 85 -52 l89
-45 328 752 c181 414 330 755 332 759 2 4 -36 27 -85 52 l-89 45 -328 -752z"/>
<path d="M540 1706 l-465 -303 -3 -89 -3 -89 475 -342 c261 -189 477 -343 480
-343 3 0 6 67 6 148 l0 148 -332 229 c-183 125 -337 231 -341 235 -4 4 145
103 332 220 l341 212 0 139 c0 105 -3 139 -12 138 -7 0 -222 -137 -478 -303z"/>
<path d="M7612 1869 l3 -141 290 -180 c160 -98 312 -193 338 -209 l48 -30
-345 -241 -346 -242 0 -144 c0 -125 2 -143 15 -138 9 3 225 157 480 341 l465
336 0 92 -1 92 -468 303 c-258 166 -472 302 -475 302 -4 0 -5 -63 -4 -141z"/>
<path d="M3570 1900 c-14 -4 -41 -5 -61 -3 -41 6 -54 -6 -45 -43 5 -20 13 -24
41 -24 19 0 35 -2 35 -4 0 -2 -16 -28 -36 -57 -55 -82 -104 -185 -104 -219 0
-26 4 -30 28 -30 15 0 37 6 48 14 11 8 40 16 65 18 37 3 45 7 47 26 5 33 -15
52 -54 52 -19 0 -34 4 -34 8 0 11 74 116 117 167 42 49 44 99 3 102 -14 1 -36
-2 -50 -7z"/>
<path d="M3678 1823 c-42 -93 -54 -127 -72 -217 -17 -78 -13 -96 19 -96 20 0
25 9 40 73 10 39 35 120 57 180 41 110 43 137 10 137 -14 0 -29 -21 -54 -77z"/>
<path d="M2448 1805 c-3 -4 -44 -9 -89 -12 -69 -4 -87 -9 -104 -28 -14 -14
-18 -25 -10 -31 12 -11 59 -10 101 1 73 19 96 15 131 -21 29 -31 34 -33 40
-18 4 11 -3 35 -18 63 -25 44 -40 57 -51 46z"/>
<path d="M2263 1680 c-12 -5 -26 -18 -32 -28 -9 -17 -7 -21 17 -27 23 -6 91
-6 180 -1 49 3 5 40 -66 55 -61 13 -69 13 -99 1z m27 -40 c0 -5 -4 -10 -10
-10 -5 0 -10 5 -10 10 0 6 5 10 10 10 6 0 10 -4 10 -10z m110 0 c0 -5 -7 -10
-16 -10 -8 0 -12 5 -9 10 3 6 10 10 16 10 5 0 9 -4 9 -10z"/>
<path d="M2950 940 l0 -500 1585 0 1585 0 -2 498 -3 497 -1582 3 -1583 2 0
-500z m3118 -2 l2 -448 -1535 0 -1535 0 0 450 0 450 1533 -2 1532 -3 3 -447z"/>
<path d="M3080 1235 l0 -25 1445 0 1445 0 0 25 0 25 -1445 0 -1445 0 0 -25z"/>
<path d="M4454 1116 c-74 -33 -98 -109 -92 -296 4 -139 19 -186 71 -224 24
-18 43 -21 117 -21 105 0 131 14 170 91 23 45 25 60 25 184 0 124 -2 139 -26
191 -20 42 -35 60 -62 72 -43 21 -158 22 -203 3z m137 -133 c12 -32 12 -235
-1 -267 -6 -18 -17 -26 -34 -26 -44 0 -51 22 -51 162 0 123 1 131 23 148 27
23 50 16 63 -17z"/>
<path d="M4920 1112 c-75 -37 -95 -106 -88 -304 3 -97 7 -119 28 -158 16 -28
39 -52 60 -62 40 -20 125 -23 183 -7 36 10 37 11 37 59 l0 50 -60 0 c-46 0
-65 5 -79 19 -37 37 -41 224 -7 276 15 22 23 25 82 25 l65 0 -3 47 c-2 39 -7
50 -28 60 -37 19 -148 16 -190 -5z"/>
<path d="M5300 1113 c-50 -26 -72 -71 -72 -148 0 -88 20 -121 102 -162 36 -18
71 -41 78 -52 12 -17 11 -22 -7 -40 -18 -18 -33 -21 -96 -21 l-75 0 0 -45 c0
-55 17 -67 115 -73 132 -8 191 26 206 119 11 66 -3 134 -32 166 -13 14 -49 38
-80 53 -70 36 -84 52 -69 79 9 19 20 21 90 21 l80 0 0 44 c0 60 -15 69 -118
74 -70 2 -94 0 -122 -15z"/>
<path d="M3085 1058 c-4 -35 -7 -155 -8 -268 l-2 -205 62 -3 62 -3 3 148 c3
161 0 159 39 21 10 -38 10 -38 64 -38 l54 0 10 38 c5 20 12 53 16 72 17 84 24
57 25 -87 l0 -153 67 0 66 0 -6 223 c-4 122 -10 244 -13 270 l-7 48 -80 -3
-81 -3 -25 -105 -25 -105 -13 65 c-8 36 -20 83 -26 105 l-12 40 -82 3 -81 3
-7 -63z"/>
<path d="M3630 866 c0 -140 3 -261 6 -270 5 -12 21 -16 75 -16 l69 0 -2 268
-3 267 -72 3 -73 3 0 -255z"/>
<path d="M3882 853 l3 -268 73 -3 72 -3 0 111 0 111 43 -3 42 -3 3 -107 3
-108 70 0 69 0 -2 268 -3 267 -67 3 -68 3 0 -101 0 -100 -45 0 -44 0 -3 98 -3
97 -73 3 -72 3 2 -268z"/>
<path d="M5711 1053 c-43 -146 -96 -429 -85 -457 5 -12 21 -16 69 -16 l63 0 7
65 7 65 43 0 42 0 6 -55 c3 -30 8 -59 12 -65 3 -5 36 -10 72 -10 l66 0 -7 61
c-8 81 -60 337 -83 414 l-19 60 -86 3 -87 3 -20 -68z m128 -215 c1 -24 -3 -28
-25 -28 -26 0 -26 1 -20 53 4 28 10 63 14 77 5 22 8 18 18 -25 7 -27 13 -62
13 -77z"/>
</g>

</svg>
