<?xml version="1.0" standalone="no"?>
<!DOCTYPE svg PUBLIC "-//W3C//DTD SVG 20010904//EN"
 "http://www.w3.org/TR/2001/REC-SVG-20010904/DTD/svg10.dtd">
<svg version="1.0" xmlns="http://www.w3.org/2000/svg"
 width="1043.000000pt" height="769.000000pt" viewBox="0 0 1043.000000 769.000000"
 preserveAspectRatio="xMidYMid meet">

<g transform="translate(0.000000,769.000000) scale(0.100000,-0.100000)"
fill="#000000" stroke="none">
<path d="M0 3845 l0 -3845 5215 0 5215 0 0 3845 0 3845 -5215 0 -5215 0 0
-3845z m1739 2469 c64 -53 23 -154 -61 -154 -28 0 -42 7 -62 31 -35 41 -34 83
3 120 37 37 79 38 120 3z m3410 0 c64 -53 23 -154 -61 -154 -28 0 -42 7 -62
31 -35 41 -34 83 3 120 37 37 79 38 120 3z m3400 0 c64 -53 23 -154 -61 -154
-28 0 -42 7 -62 31 -35 41 -34 83 3 120 37 37 79 38 120 3z m-6965 -108 c15
-36 59 -66 96 -66 37 0 81 30 96 66 l14 34 125 0 125 0 -6 -32 c-15 -85 -62
-177 -115 -224 -38 -35 -120 -73 -182 -85 -92 -19 -222 18 -296 85 -53 47
-100 139 -115 224 l-5 32 124 0 125 0 14 -34z m3410 0 c15 -36 59 -66 96 -66
37 0 81 30 96 66 l14 34 125 0 125 0 -6 -32 c-21 -120 -68 -194 -162 -255 -76
-49 -167 -69 -244 -55 -64 12 -147 50 -187 86 -53 47 -100 139 -115 224 l-5
32 124 0 125 0 14 -34z m3400 0 c15 -36 59 -66 96 -66 37 0 81 30 96 66 l14
34 125 0 125 0 -6 -32 c-21 -120 -68 -194 -162 -255 -76 -49 -167 -69 -244
-55 -64 12 -147 50 -187 86 -53 47 -100 139 -115 224 l-5 32 124 0 125 0 14
-34z m-6924 -525 c0 -39 5 -73 10 -76 20 -12 11 -36 -12 -33 -22 3 -23 8 -26
91 -2 73 0 87 13 87 12 0 15 -14 15 -69z m70 44 c0 -21 5 -25 29 -25 31 0 48
-14 51 -45 7 -60 -14 -85 -71 -85 l-39 0 0 90 c0 73 3 90 15 90 9 0 15 -9 15
-25z m-290 0 c7 -8 10 -25 6 -39 -3 -14 -2 -28 4 -31 15 -9 12 -52 -6 -69 -10
-10 -33 -16 -65 -16 l-49 0 0 85 0 85 49 0 c31 0 53 -5 61 -15z m3490 -70 c0
-69 -3 -85 -15 -85 -12 0 -15 16 -15 85 0 69 3 85 15 85 12 0 15 -16 15 -85z
m3293 22 c10 -32 23 -55 27 -50 4 4 15 32 25 61 12 39 21 52 36 52 18 0 18 -3
-7 -67 -14 -38 -28 -76 -31 -86 -4 -11 -13 -17 -27 -15 -15 2 -27 21 -48 73
-32 82 -34 98 -11 93 10 -2 24 -25 36 -61z m-6701 -24 c2 -36 7 -49 21 -51 14
-3 17 4 17 47 0 44 3 51 20 51 18 0 20 -7 20 -65 l0 -65 -43 0 c-24 0 -48 5
-55 12 -18 18 -16 118 2 118 11 0 16 -14 18 -47z m408 27 c6 -12 10 -40 8 -63
l-3 -42 -44 0 c-31 0 -47 5 -55 18 -15 24 3 51 38 55 14 2 26 8 26 14 0 6 -11
8 -24 6 -15 -3 -27 0 -30 8 -7 18 3 24 40 24 23 0 37 -6 44 -20z m118 -3 c3
-15 -1 -17 -22 -11 -16 4 -26 2 -26 -5 0 -6 6 -11 13 -11 8 0 22 -9 33 -21 14
-15 16 -24 7 -37 -14 -22 -88 -24 -88 -2 0 10 8 14 28 12 31 -3 37 14 8 23
-56 17 -46 79 12 73 21 -2 33 -9 35 -21z m122 3 c6 -12 10 -40 8 -63 l-3 -42
-44 0 c-31 0 -47 5 -55 18 -15 24 3 51 38 55 14 2 26 8 26 14 0 6 -11 8 -24 6
-15 -3 -27 0 -30 8 -7 18 3 24 40 24 23 0 37 -6 44 -20z m72 -27 c2 -36 7 -49
21 -51 14 -3 17 4 17 47 0 44 3 51 20 51 18 0 20 -7 20 -65 l0 -65 -43 0 c-24
0 -48 5 -55 12 -18 18 -16 118 2 118 11 0 16 -14 18 -47z m188 32 c0 -9 -9
-15 -25 -15 -23 0 -25 -3 -25 -50 0 -38 -4 -50 -15 -50 -12 0 -15 14 -15 65
l0 65 40 0 c29 0 40 -4 40 -15z m2566 -20 c9 -49 19 -51 33 -5 7 23 18 40 26
40 20 0 19 -9 -6 -75 -25 -67 -44 -70 -68 -12 -33 75 -35 87 -12 87 15 0 22
-9 27 -35z m134 -7 l13 -43 12 40 c7 23 19 41 28 43 10 2 17 -1 17 -7 0 -20
-43 -126 -58 -143 -19 -22 -62 -24 -62 -3 0 8 8 15 18 15 30 0 31 9 6 70 -29
71 -29 70 -6 70 13 0 23 -13 32 -42z m168 19 c3 -15 -1 -17 -22 -11 -16 4 -26
2 -26 -5 0 -6 6 -11 13 -11 8 0 22 -9 33 -21 14 -15 16 -24 7 -37 -14 -22 -88
-24 -88 -2 0 10 8 14 28 12 31 -3 37 14 8 23 -56 17 -46 79 12 73 21 -2 33 -9
35 -21z m122 3 c6 -12 10 -40 8 -63 l-3 -42 -44 0 c-31 0 -47 5 -55 18 -15 24
3 51 38 55 14 2 26 8 26 14 0 6 -11 8 -24 6 -15 -3 -27 0 -30 8 -7 18 3 24 40
24 23 0 37 -6 44 -20z m72 -27 c2 -36 7 -49 21 -51 14 -3 17 4 17 47 0 44 3
51 20 51 18 0 20 -7 20 -65 l0 -65 -43 0 c-24 0 -48 5 -55 12 -18 18 -16 118
2 118 11 0 16 -14 18 -47z m188 32 c0 -9 -9 -15 -25 -15 -23 0 -25 -3 -25 -50
0 -38 -4 -50 -15 -50 -12 0 -15 14 -15 65 l0 65 40 0 c29 0 40 -4 40 -15z
m2748 3 c7 -7 12 -22 12 -35 0 -20 -5 -23 -40 -23 -22 0 -40 -4 -40 -9 0 -13
34 -23 54 -15 12 4 16 0 16 -15 0 -17 -6 -21 -34 -21 -44 0 -66 22 -66 65 0
18 7 41 16 49 18 19 65 21 82 4z m142 -7 c16 -31 13 -111 -5 -111 -10 0 -15
10 -15 34 0 44 -9 66 -26 66 -10 0 -14 -14 -14 -50 0 -43 -3 -50 -20 -50 -18
0 -20 7 -20 65 l0 65 45 0 c34 0 47 -5 55 -19z m70 -15 c0 -44 9 -66 26 -66
10 0 14 14 14 50 0 43 3 50 20 50 18 0 20 -7 20 -65 l0 -65 -45 0 c-53 0 -65
16 -65 84 0 34 4 46 15 46 10 0 15 -10 15 -34z m188 11 c3 -15 -1 -17 -22 -11
-16 4 -26 2 -26 -5 0 -6 6 -11 13 -11 8 0 22 -9 33 -21 14 -15 16 -24 7 -37
-14 -22 -88 -24 -88 -2 0 10 8 14 28 12 31 -3 37 14 8 23 -56 17 -46 79 12 73
21 -2 33 -9 35 -21z m122 3 c6 -12 10 -40 8 -63 l-3 -42 -44 0 c-31 0 -47 5
-55 18 -15 24 3 51 38 55 14 2 26 8 26 14 0 6 -11 8 -24 6 -15 -3 -27 0 -30 8
-7 18 3 24 40 24 23 0 37 -6 44 -20z m72 -27 c2 -36 7 -49 21 -51 14 -3 17 4
17 47 0 44 3 51 20 51 18 0 20 -7 20 -65 l0 -65 -43 0 c-24 0 -48 5 -55 12
-18 18 -16 118 2 118 11 0 16 -14 18 -47z m188 32 c0 -9 -9 -15 -25 -15 -23 0
-25 -3 -25 -50 0 -38 -4 -50 -15 -50 -12 0 -15 14 -15 65 l0 65 40 0 c29 0 40
-4 40 -15z m-7281 -1071 c64 -53 23 -154 -61 -154 -28 0 -42 7 -62 31 -35 41
-34 83 3 120 37 37 79 38 120 3z m3410 0 c64 -53 23 -154 -61 -154 -28 0 -42
7 -62 31 -35 41 -34 83 3 120 37 37 79 38 120 3z m3400 0 c64 -53 23 -154 -61
-154 -28 0 -42 7 -62 31 -35 41 -34 83 3 120 37 37 79 38 120 3z m-6965 -108
c15 -36 59 -66 96 -66 37 0 81 30 96 66 l14 34 125 0 125 0 -6 -32 c-21 -120
-68 -194 -162 -255 -76 -49 -167 -69 -244 -55 -64 12 -147 50 -187 86 -53 47
-100 139 -115 224 l-5 32 124 0 125 0 14 -34z m3410 0 c15 -36 59 -66 96 -66
37 0 81 30 96 66 l14 34 125 0 125 0 -6 -32 c-21 -120 -68 -194 -162 -255 -76
-49 -167 -69 -244 -55 -64 12 -147 50 -187 86 -53 47 -100 139 -115 224 l-5
32 124 0 125 0 14 -34z m3400 0 c15 -36 59 -66 96 -66 37 0 81 30 96 66 l14
34 125 0 125 0 -6 -32 c-21 -120 -68 -194 -162 -255 -76 -49 -167 -69 -244
-55 -64 12 -147 50 -187 86 -53 47 -100 139 -115 224 l-5 32 124 0 125 0 14
-34z m-7044 -481 c0 -20 5 -25 24 -25 34 0 56 -35 56 -87 0 -36 -3 -43 -19
-43 -17 0 -20 8 -23 47 -2 36 -7 49 -20 51 -15 3 -18 -4 -18 -47 0 -39 -4 -51
-15 -51 -12 0 -15 17 -15 90 0 73 3 90 15 90 9 0 15 -9 15 -25z m363 10 c1 -5
-6 -11 -15 -13 -11 -2 -18 3 -18 13 0 17 30 18 33 0z m487 -75 l0 -90 -44 0
c-35 0 -48 5 -60 22 -31 44 -7 108 40 108 19 0 24 5 24 25 0 18 5 25 20 25 19
0 20 -7 20 -90z m2910 75 c0 -8 -6 -15 -14 -15 -17 0 -28 14 -19 24 12 12 33
6 33 -9z m260 -54 c0 -39 5 -73 10 -76 20 -12 11 -36 -12 -33 -22 3 -23 8 -26
91 -2 73 0 87 13 87 12 0 15 -14 15 -69z m3510 4 c0 -36 5 -74 12 -85 15 -24
3 -38 -20 -24 -24 16 -31 174 -7 174 12 0 15 -13 15 -65z m-7592 32 c3 -16 -1
-18 -28 -12 -23 5 -36 2 -51 -11 -42 -38 -7 -102 51 -91 25 6 30 3 30 -13 0
-30 -75 -28 -107 2 -33 31 -32 90 2 124 31 31 97 31 103 1z m3470 0 c3 -14 -3
-17 -30 -15 -44 4 -43 -17 2 -40 63 -31 47 -92 -24 -92 -36 0 -64 15 -52 27 4
4 23 8 42 8 45 0 47 16 5 36 -46 22 -57 44 -36 75 13 21 23 25 53 22 26 -2 38
-8 40 -21z m3236 6 c3 -10 8 -35 12 -56 7 -43 16 -39 34 16 6 20 18 37 25 37
7 0 19 -17 26 -37 19 -61 23 -61 34 -3 7 39 15 56 28 58 21 4 21 -12 -2 -98
-13 -52 -21 -65 -36 -65 -14 0 -24 13 -36 44 l-16 45 -15 -45 c-27 -81 -65
-47 -83 76 -6 37 -4 45 8 45 9 0 18 -8 21 -17z m-2724 -8 c0 -9 9 -15 25 -15
16 0 25 -6 25 -15 0 -9 -10 -15 -26 -15 -23 0 -25 -3 -22 -32 2 -25 8 -34 26
-36 30 -5 29 -32 -2 -32 -51 0 -56 7 -56 86 0 59 3 74 15 74 8 0 15 -7 15 -15z
m3170 0 c0 -9 9 -15 25 -15 16 0 25 -6 25 -15 0 -9 -10 -15 -26 -15 -23 0 -25
-3 -22 -32 2 -25 8 -34 26 -36 33 -5 28 -32 -6 -32 -43 0 -52 17 -52 92 0 54
3 68 15 68 8 0 15 -7 15 -15z m340 0 c0 -9 9 -15 25 -15 16 0 25 -6 25 -15 0
-9 -10 -15 -26 -15 -23 0 -25 -3 -22 -32 2 -25 8 -34 26 -36 30 -5 29 -32 -2
-32 -51 0 -56 7 -56 86 0 59 3 74 15 74 8 0 15 -7 15 -15z m-7241 -29 c7 -8
11 -36 9 -63 -3 -42 -6 -48 -27 -51 -42 -6 -71 6 -71 31 0 30 18 47 48 47 14
0 21 4 16 11 -3 6 -17 8 -30 5 -23 -6 -34 11 -17 27 12 12 60 7 72 -7z m121
-1 c0 -8 -9 -15 -20 -15 -17 0 -20 -7 -20 -50 0 -43 -3 -50 -20 -50 -18 0 -20
7 -20 65 l0 65 40 0 c29 0 40 -4 40 -15z m60 -50 c0 -58 -2 -65 -20 -65 -18 0
-20 7 -20 65 0 58 2 65 20 65 18 0 20 -7 20 -65z m120 47 c0 -10 -11 -29 -25
-42 -14 -13 -25 -27 -25 -32 0 -4 11 -8 25 -8 16 0 25 -6 25 -15 0 -11 -12
-15 -50 -15 -58 0 -64 12 -25 58 14 17 25 33 25 36 0 3 -11 6 -25 6 -16 0 -25
6 -25 15 0 11 12 15 50 15 42 0 50 -3 50 -18z m109 4 c7 -8 11 -36 9 -63 l-3
-48 -42 -3 c-34 -3 -44 1 -53 17 -16 32 3 61 41 61 19 0 28 4 23 11 -3 6 -17
8 -30 5 -19 -5 -24 -2 -24 14 0 16 7 20 34 20 18 0 39 -6 45 -14z m121 -1 c0
-8 -9 -15 -20 -15 -17 0 -20 -7 -20 -50 0 -43 -3 -50 -20 -50 -18 0 -20 7 -20
65 l0 65 40 0 c29 0 40 -4 40 -15z m2830 -70 c0 -69 -3 -85 -15 -85 -8 0 -15
9 -15 20 0 15 -7 20 -28 20 -37 0 -52 17 -52 59 0 47 24 71 72 71 l38 0 0 -85z
m72 38 c2 -36 7 -49 21 -51 14 -3 17 4 17 47 0 39 4 51 15 51 12 0 15 -14 15
-65 l0 -65 -39 0 c-50 0 -71 27 -71 87 0 36 3 43 19 43 17 0 20 -8 23 -47z
m138 -18 c0 -51 -3 -65 -15 -65 -12 0 -15 14 -15 65 0 51 3 65 15 65 12 0 15
-14 15 -65z m110 50 c0 -8 -9 -15 -20 -15 -17 0 -20 -7 -20 -50 0 -43 -3 -50
-20 -50 -18 0 -20 7 -20 65 l0 65 40 0 c29 0 40 -4 40 -15z m284 -1 c9 -8 16
-24 16 -35 0 -16 -7 -19 -40 -19 -22 0 -40 -4 -40 -9 0 -13 34 -23 54 -15 12
4 16 0 16 -15 0 -17 -6 -21 -31 -21 -42 0 -65 15 -73 45 -6 25 7 64 28 77 19
13 54 9 70 -8z m2765 2 c7 -8 11 -36 9 -63 -3 -42 -6 -48 -27 -51 -42 -6 -71
6 -71 31 0 30 18 47 48 47 14 0 21 4 16 11 -3 6 -17 8 -30 5 -23 -6 -34 11
-17 27 12 12 60 7 72 -7z m129 2 c-3 -7 -14 -14 -26 -16 -19 -3 -22 -10 -22
-53 0 -37 -4 -49 -15 -49 -12 0 -15 14 -15 65 l0 65 41 0 c28 0 39 -4 37 -12z
m206 -3 c31 -31 27 -84 -8 -107 -38 -26 -96 8 -96 57 0 54 67 86 104 50z m126
0 c0 -8 -9 -15 -20 -15 -17 0 -20 -7 -20 -50 0 -43 -3 -50 -20 -50 -18 0 -20
7 -20 65 l0 65 40 0 c29 0 40 -4 40 -15z m284 -1 c9 -8 16 -24 16 -35 0 -16
-7 -19 -40 -19 -22 0 -40 -4 -40 -9 0 -14 34 -23 55 -15 13 5 16 2 13 -12 -7
-38 -83 -29 -99 13 -24 64 49 124 95 77z m-7275 -1070 c64 -53 23 -154 -61
-154 -28 0 -42 7 -62 31 -35 41 -34 83 3 120 37 37 79 38 120 3z m3410 0 c64
-53 23 -154 -61 -154 -28 0 -42 7 -62 31 -35 41 -34 83 3 120 37 37 79 38 120
3z m3400 0 c64 -53 23 -154 -61 -154 -28 0 -42 7 -62 31 -35 41 -34 83 3 120
37 37 79 38 120 3z m-6965 -108 c15 -36 59 -66 96 -66 37 0 81 30 96 66 l14
34 125 0 125 0 -6 -32 c-21 -120 -68 -194 -162 -255 -76 -49 -167 -69 -244
-55 -64 12 -147 50 -187 86 -53 47 -100 139 -115 224 l-5 32 124 0 125 0 14
-34z m3410 0 c15 -36 59 -66 96 -66 37 0 81 30 96 66 l14 34 125 0 125 0 -6
-32 c-21 -120 -68 -194 -162 -255 -76 -49 -167 -69 -244 -55 -64 12 -147 50
-187 86 -53 47 -100 139 -115 224 l-5 32 124 0 125 0 14 -34z m3400 0 c15 -36
59 -66 96 -66 37 0 81 30 96 66 l14 34 125 0 125 0 -6 -32 c-21 -120 -68 -194
-162 -255 -76 -49 -167 -69 -244 -55 -64 12 -147 50 -187 86 -53 47 -100 139
-115 224 l-5 32 124 0 125 0 14 -34z m-6224 -546 l0 -90 -44 0 c-35 0 -48 5
-60 22 -31 44 -7 108 40 108 19 0 24 5 24 25 0 18 5 25 20 25 19 0 20 -7 20
-90z m3148 67 c3 -15 0 -18 -16 -13 -11 4 -23 2 -27 -4 -4 -6 4 -10 19 -10 16
0 26 -6 26 -15 0 -9 -9 -15 -25 -15 -23 0 -25 -3 -25 -50 0 -38 -4 -50 -15
-50 -12 0 -15 15 -15 78 0 49 5 83 12 90 18 18 62 11 66 -11z m3372 -67 l0
-90 -37 0 c-45 0 -73 24 -73 62 0 46 17 68 50 68 25 0 30 4 30 25 0 16 6 25
15 25 12 0 15 -17 15 -90z m70 21 c0 -39 5 -73 10 -76 20 -12 11 -36 -12 -33
-22 3 -23 8 -26 91 -2 73 0 87 13 87 12 0 15 -14 15 -69z m-7500 7 l23 -53 23
53 c14 31 29 52 39 52 20 0 23 -9 28 -97 4 -65 2 -73 -14 -73 -15 0 -19 10
-21 53 l-4 52 -18 -42 c-11 -24 -25 -43 -33 -43 -8 0 -22 19 -33 43 -18 41
-19 41 -19 12 -2 -46 -12 -75 -27 -75 -16 0 -18 33 -8 118 9 71 33 71 64 0z
m3351 42 c13 -8 19 -20 18 -43 -1 -18 2 -42 6 -54 11 -34 -25 -63 -80 -63
l-45 0 0 85 0 85 41 0 c22 0 49 -5 60 -10z m3514 -40 c4 -27 10 -52 15 -55 4
-2 13 16 20 41 17 59 38 55 60 -11 l17 -49 12 62 c10 50 16 62 31 62 11 0 18
-6 16 -12 -3 -7 -12 -46 -21 -85 -21 -90 -42 -98 -72 -26 l-19 47 -13 -47
c-25 -88 -61 -51 -87 89 -5 30 -4 34 14 34 17 0 21 -9 27 -50z m-6545 25 c0
-8 9 -15 20 -15 11 0 20 -7 20 -15 0 -8 -9 -15 -20 -15 -16 0 -20 -7 -20 -35
0 -28 4 -35 20 -35 11 0 20 -7 20 -15 0 -18 -50 -21 -68 -3 -7 7 -12 40 -12
80 0 61 2 68 20 68 11 0 20 -7 20 -15z m3260 0 c0 -8 9 -15 20 -15 11 0 20 -7
20 -15 0 -8 -9 -15 -20 -15 -16 0 -20 -7 -20 -35 0 -28 4 -35 20 -35 11 0 20
-7 20 -15 0 -18 -50 -21 -68 -3 -7 7 -12 40 -12 80 0 61 2 68 20 68 11 0 20
-7 20 -15z m100 0 c0 -8 9 -15 20 -15 11 0 20 -7 20 -15 0 -8 -9 -15 -20 -15
-16 0 -20 -7 -20 -30 0 -23 6 -33 26 -40 32 -13 22 -30 -17 -30 -36 0 -49 27
-49 106 0 47 2 54 20 54 11 0 20 -7 20 -15z m-3436 -37 c27 -38 20 -48 -30
-48 -41 0 -45 -2 -33 -16 9 -11 22 -14 42 -10 23 5 28 3 25 -12 -5 -24 -64
-29 -89 -6 -40 36 -12 114 41 114 18 0 34 -8 44 -22z m225 8 c7 -8 11 -36 9
-63 l-3 -48 -42 -3 c-34 -3 -44 1 -53 17 -16 32 3 61 41 61 19 0 28 4 23 11
-3 6 -17 8 -30 5 -19 -5 -24 -2 -24 14 0 16 7 20 34 20 18 0 39 -6 45 -14z
m141 -6 c37 -37 14 -110 -36 -110 -17 0 -24 -5 -24 -20 0 -13 -7 -20 -20 -20
-18 0 -20 7 -20 85 l0 85 40 0 c27 0 47 -7 60 -20z m144 -2 c46 -66 -28 -144
-86 -91 -22 20 -23 70 -1 95 23 25 68 23 87 -4z m2688 -25 c2 -36 7 -49 21
-51 14 -3 17 4 17 47 0 39 4 51 15 51 12 0 15 -14 15 -65 l0 -65 -39 0 c-54 0
-71 20 -71 81 0 42 3 49 19 49 17 0 20 -8 23 -47z m396 35 c7 -7 12 -22 12
-35 0 -20 -5 -23 -40 -23 -22 0 -40 -4 -40 -9 0 -13 34 -23 54 -15 12 4 16 0
16 -15 0 -17 -6 -21 -34 -21 -44 0 -66 22 -66 65 0 18 7 41 16 49 18 19 65 21
82 4z m122 -3 c0 -8 -9 -15 -20 -15 -17 0 -20 -7 -20 -50 0 -43 -3 -50 -20
-50 -18 0 -20 7 -20 65 l0 65 40 0 c29 0 40 -4 40 -15z m190 0 c0 -8 -9 -15
-20 -15 -17 0 -20 -7 -20 -50 0 -43 -3 -50 -20 -50 -18 0 -20 7 -20 65 l0 65
40 0 c29 0 40 -4 40 -15z m114 -7 c26 -37 20 -48 -25 -48 -28 0 -39 -4 -36
-12 2 -7 18 -12 36 -11 25 1 31 -3 29 -15 -2 -12 -15 -18 -40 -20 -28 -2 -40
2 -52 20 -33 46 -7 108 44 108 18 0 34 -8 44 -22z m140 0 c27 -38 20 -48 -30
-48 -41 0 -45 -2 -33 -16 9 -11 22 -14 42 -10 23 5 28 3 25 -12 -5 -24 -64
-29 -89 -6 -40 36 -12 114 41 114 18 0 34 -8 44 -22z m2740 6 c9 -8 16 -24 16
-35 0 -16 -7 -19 -40 -19 -22 0 -40 -4 -40 -9 0 -14 34 -23 55 -15 13 5 16 2
13 -12 -7 -38 -83 -29 -99 13 -24 64 49 124 95 77z m140 -6 c26 -37 20 -48
-25 -48 -28 0 -39 -4 -36 -12 2 -7 18 -12 36 -11 25 1 31 -3 29 -15 -2 -12
-15 -18 -40 -20 -28 -2 -40 2 -52 20 -33 46 -7 108 44 108 18 0 34 -8 44 -22z
m350 0 c26 -37 20 -48 -25 -48 -28 0 -39 -4 -36 -12 2 -7 18 -12 36 -11 25 1
31 -3 29 -15 -2 -12 -15 -18 -40 -20 -28 -2 -40 2 -52 20 -33 46 -7 108 44
108 18 0 34 -8 44 -22z m-7155 -1064 c64 -53 23 -154 -61 -154 -28 0 -42 7
-62 31 -35 41 -34 83 3 120 37 37 79 38 120 3z m3410 0 c64 -53 23 -154 -61
-154 -28 0 -42 7 -62 31 -35 41 -34 83 3 120 37 37 79 38 120 3z m3400 0 c64
-53 23 -154 -61 -154 -28 0 -42 7 -62 31 -35 41 -34 83 3 120 37 37 79 38 120
3z m-6965 -108 c15 -36 59 -66 96 -66 37 0 81 30 96 66 l14 34 125 0 125 0 -6
-32 c-15 -85 -62 -177 -115 -224 -38 -35 -120 -73 -182 -85 -92 -19 -222 18
-296 85 -53 47 -100 139 -115 224 l-5 32 124 0 125 0 14 -34z m3410 0 c15 -36
59 -66 96 -66 37 0 81 30 96 66 l14 34 125 0 125 0 -6 -32 c-21 -120 -68 -194
-162 -255 -76 -49 -167 -69 -244 -55 -64 12 -147 50 -187 86 -53 47 -100 139
-115 224 l-5 32 124 0 125 0 14 -34z m3400 0 c15 -36 59 -66 96 -66 37 0 81
30 96 66 l14 34 125 0 125 0 -6 -32 c-21 -120 -68 -194 -162 -255 -76 -49
-167 -69 -244 -55 -64 12 -147 50 -187 86 -53 47 -100 139 -115 224 l-5 32
124 0 125 0 14 -34z m-6894 -471 c0 -8 -6 -15 -14 -15 -17 0 -28 14 -19 24 12
12 33 6 33 -9z m140 -75 l0 -90 -37 0 c-45 0 -73 24 -73 62 0 46 17 68 50 68
25 0 30 4 30 25 0 16 6 25 15 25 12 0 15 -17 15 -90z m3090 75 c0 -8 -9 -15
-20 -15 -11 0 -20 7 -20 15 0 8 9 15 20 15 11 0 20 -7 20 -15z m140 -75 l0
-90 -39 0 c-62 0 -94 46 -69 97 10 21 22 29 46 31 26 3 32 7 32 28 0 15 6 24
15 24 12 0 15 -17 15 -90z m3390 75 c0 -8 -9 -15 -20 -15 -11 0 -20 7 -20 15
0 8 9 15 20 15 11 0 20 -7 20 -15z m140 -75 l0 -90 -44 0 c-35 0 -48 5 -60 22
-31 44 -7 108 40 108 19 0 24 5 24 25 0 18 5 25 20 25 19 0 20 -7 20 -90z
m-6979 70 c13 -7 19 -21 19 -45 0 -38 -20 -55 -64 -55 -22 0 -26 -4 -26 -30 0
-20 -5 -30 -15 -30 -12 0 -15 16 -15 85 l0 85 41 0 c22 0 49 -5 60 -10z m3231
-7 c37 -33 10 -93 -44 -93 -24 0 -28 -4 -28 -30 0 -23 -4 -30 -20 -30 -18 0
-20 7 -20 85 l0 85 47 0 c29 0 53 -6 65 -17z m3530 0 c37 -33 10 -93 -44 -93
-24 0 -28 -4 -28 -30 0 -23 -4 -30 -20 -30 -18 0 -20 7 -20 85 l0 85 47 0 c29
0 53 -6 65 -17z m-2822 -8 c0 -8 9 -15 20 -15 11 0 20 -7 20 -15 0 -8 -9 -15
-20 -15 -16 0 -20 -7 -20 -35 0 -28 4 -35 20 -35 11 0 20 -7 20 -15 0 -18 -50
-21 -68 -3 -7 7 -12 40 -12 80 0 61 2 68 20 68 11 0 20 -7 20 -15z m100 0 c0
-8 9 -15 20 -15 11 0 20 -7 20 -15 0 -8 -9 -15 -20 -15 -16 0 -20 -7 -20 -30
0 -23 6 -33 26 -40 32 -13 22 -30 -17 -30 -36 0 -49 27 -49 106 0 47 2 54 20
54 11 0 20 -7 20 -15z m3430 0 c0 -8 9 -15 20 -15 11 0 20 -7 20 -15 0 -8 -9
-15 -20 -15 -16 0 -20 -7 -20 -35 0 -28 4 -35 20 -35 11 0 20 -7 20 -15 0 -18
-50 -21 -68 -3 -7 7 -12 40 -12 80 0 61 2 68 20 68 11 0 20 -7 20 -15z m-7390
-80 c0 -51 -3 -65 -15 -65 -12 0 -15 14 -15 65 0 51 3 65 15 65 12 0 15 -14
15 -65z m280 -8 c0 -84 -8 -97 -62 -97 -31 0 -38 4 -38 20 0 15 6 19 28 16 15
-2 20 -1 12 1 -48 15 -64 68 -34 111 11 16 25 22 55 22 l39 0 0 -73z m134 51
c27 -38 20 -48 -30 -48 -41 0 -45 -2 -33 -16 9 -11 22 -14 42 -10 23 5 28 3
25 -12 -5 -24 -64 -29 -89 -6 -23 21 -25 62 -3 92 20 30 68 30 88 0z m70 -16
c12 -42 23 -41 32 3 4 25 11 35 25 35 11 0 19 -2 19 -5 0 -12 -52 -140 -61
-152 -16 -19 -70 -17 -63 2 4 8 13 15 20 15 24 0 26 24 5 71 -25 54 -26 71 -4
67 10 -2 21 -18 27 -36z m2746 -27 c0 -58 -2 -65 -20 -65 -18 0 -20 7 -20 65
0 58 2 65 20 65 18 0 20 -7 20 -65z m280 -4 c0 -81 -13 -101 -65 -101 -38 0
-52 14 -35 35 7 9 8 15 0 20 -16 10 -12 76 7 97 10 11 30 18 55 18 l38 0 0
-69z m128 57 c7 -7 12 -22 12 -35 0 -20 -5 -23 -40 -23 -22 0 -40 -4 -40 -9 0
-13 34 -23 54 -15 12 4 16 0 16 -15 0 -17 -6 -21 -34 -21 -44 0 -66 22 -66 65
0 18 7 41 16 49 18 19 65 21 82 4z m146 -10 c32 -45 7 -108 -42 -108 -33 0
-45 8 -61 38 -34 64 62 129 103 70z m340 0 c46 -66 -28 -144 -86 -91 -22 20
-23 70 -1 95 23 25 68 23 87 -4z m2636 -43 c0 -58 -2 -65 -20 -65 -18 0 -20 7
-20 65 0 58 2 65 20 65 18 0 20 -7 20 -65z m280 -4 c0 -83 -14 -104 -69 -99
-50 4 -51 34 -1 31 34 -2 34 -1 5 5 -19 5 -35 17 -43 35 -25 51 7 97 69 97
l39 0 0 -69z m128 57 c7 -7 12 -22 12 -35 0 -20 -5 -23 -40 -23 -22 0 -40 -4
-40 -9 0 -13 34 -23 54 -15 12 4 16 0 16 -15 0 -17 -6 -21 -34 -21 -44 0 -66
22 -66 65 0 18 7 41 16 49 18 19 65 21 82 4z m136 -3 c31 -31 27 -84 -8 -107
-38 -26 -96 8 -96 57 0 54 67 86 104 50z"/>
<path d="M1652 6294 c-24 -17 -30 -62 -10 -82 7 -7 24 -12 38 -12 33 0 50 17
50 51 0 24 -30 59 -50 59 -3 0 -16 -7 -28 -16z m58 -19 c26 -32 -13 -81 -47
-59 -35 22 -23 74 17 74 10 0 23 -7 30 -15z"/>
<path d="M5062 6294 c-24 -17 -30 -62 -10 -82 7 -7 24 -12 38 -12 33 0 50 17
50 51 0 24 -30 59 -50 59 -3 0 -16 -7 -28 -16z m58 -19 c26 -32 -13 -81 -47
-59 -35 22 -23 74 17 74 10 0 23 -7 30 -15z"/>
<path d="M8462 6294 c-24 -17 -30 -62 -10 -82 7 -7 24 -12 38 -12 33 0 50 17
50 51 0 24 -30 59 -50 59 -3 0 -16 -7 -28 -16z m58 -19 c26 -32 -13 -81 -47
-59 -35 22 -23 74 17 74 10 0 23 -7 30 -15z"/>
<path d="M1540 5636 c0 -22 5 -36 13 -36 42 1 51 62 10 68 -20 3 -23 -1 -23
-32z"/>
<path d="M1180 5695 c0 -11 7 -15 23 -13 12 2 22 8 22 13 0 6 -10 11 -22 13
-16 2 -23 -2 -23 -13z"/>
<path d="M1180 5625 c0 -25 13 -31 44 -19 33 13 11 44 -30 44 -8 0 -14 -10
-14 -25z"/>
<path d="M1680 5610 c0 -5 7 -10 15 -10 8 0 15 5 15 10 0 6 -7 10 -15 10 -8 0
-15 -4 -15 -10z"/>
<path d="M1920 5610 c0 -5 7 -10 15 -10 8 0 15 5 15 10 0 6 -7 10 -15 10 -8 0
-15 -4 -15 -10z"/>
<path d="M5170 5610 c0 -5 7 -10 15 -10 8 0 15 5 15 10 0 6 -7 10 -15 10 -8 0
-15 -4 -15 -10z"/>
<path d="M8175 5660 c-4 -6 5 -10 20 -10 15 0 24 4 20 10 -3 6 -12 10 -20 10
-8 0 -17 -4 -20 -10z"/>
<path d="M8700 5610 c0 -5 7 -10 15 -10 8 0 15 5 15 10 0 6 -7 10 -15 10 -8 0
-15 -4 -15 -10z"/>
<path d="M1652 4594 c-24 -17 -30 -62 -10 -82 7 -7 24 -12 38 -12 33 0 50 17
50 51 0 24 -30 59 -50 59 -3 0 -16 -7 -28 -16z m58 -19 c26 -32 -13 -81 -47
-59 -35 22 -23 74 17 74 10 0 23 -7 30 -15z"/>
<path d="M5062 4594 c-24 -17 -30 -62 -10 -82 7 -7 24 -12 38 -12 33 0 50 17
50 51 0 24 -30 59 -50 59 -3 0 -16 -7 -28 -16z m58 -19 c26 -32 -13 -81 -47
-59 -35 22 -23 74 17 74 10 0 23 -7 30 -15z"/>
<path d="M8462 4594 c-24 -17 -30 -62 -10 -82 7 -7 24 -12 38 -12 33 0 50 17
50 51 0 24 -30 59 -50 59 -3 0 -16 -7 -28 -16z m58 -19 c26 -32 -13 -81 -47
-59 -35 22 -23 74 17 74 10 0 23 -7 30 -15z"/>
<path d="M2124 3956 c-9 -24 0 -51 19 -54 14 -3 17 4 17 32 0 26 -4 36 -15 36
-9 0 -18 -6 -21 -14z"/>
<path d="M1485 3910 c-3 -5 3 -10 14 -10 12 0 21 5 21 10 0 6 -6 10 -14 10 -8
0 -18 -4 -21 -10z"/>
<path d="M1890 3910 c0 -5 9 -10 20 -10 11 0 20 5 20 10 0 6 -9 10 -20 10 -11
0 -20 -4 -20 -10z"/>
<path d="M4832 3961 c-21 -13 -11 -56 13 -56 15 0 21 8 23 33 3 33 -9 41 -36
23z"/>
<path d="M5445 3960 c-4 -6 5 -10 20 -10 15 0 24 4 20 10 -3 6 -12 10 -20 10
-8 0 -17 -4 -20 -10z"/>
<path d="M8215 3910 c-3 -5 3 -10 14 -10 12 0 21 5 21 10 0 6 -6 10 -14 10 -8
0 -18 -4 -21 -10z"/>
<path d="M8544 3956 c-10 -26 0 -51 21 -51 16 0 20 7 20 30 0 33 -30 49 -41
21z"/>
<path d="M8955 3960 c-4 -6 5 -10 20 -10 15 0 24 4 20 10 -3 6 -12 10 -20 10
-8 0 -17 -4 -20 -10z"/>
<path d="M1652 2894 c-24 -17 -30 -62 -10 -82 7 -7 24 -12 38 -12 33 0 50 17
50 51 0 24 -30 59 -50 59 -3 0 -16 -7 -28 -16z m58 -19 c26 -32 -13 -81 -47
-59 -35 22 -23 74 17 74 10 0 23 -7 30 -15z"/>
<path d="M5062 2894 c-24 -17 -30 -62 -10 -82 7 -7 24 -12 38 -12 33 0 50 17
50 51 0 24 -30 59 -50 59 -3 0 -16 -7 -28 -16z m58 -19 c26 -32 -13 -81 -47
-59 -35 22 -23 74 17 74 10 0 23 -7 30 -15z"/>
<path d="M8462 2894 c-24 -17 -30 -62 -10 -82 7 -7 24 -12 38 -12 33 0 50 17
50 51 0 24 -30 59 -50 59 -3 0 -16 -7 -28 -16z m58 -19 c26 -32 -13 -81 -47
-59 -35 22 -23 74 17 74 10 0 23 -7 30 -15z"/>
<path d="M2094 2256 c-9 -24 0 -51 19 -54 14 -3 17 4 17 32 0 26 -4 36 -15 36
-9 0 -18 -6 -21 -14z"/>
<path d="M8617 2263 c-13 -12 -7 -51 9 -57 29 -11 34 -6 34 29 0 27 -4 35 -18
35 -10 0 -22 -3 -25 -7z"/>
<path d="M4540 2295 c0 -12 7 -15 25 -13 14 2 26 8 26 13 0 6 -12 11 -26 13
-18 2 -25 -1 -25 -13z"/>
<path d="M4540 2225 c0 -23 4 -26 28 -23 19 2 27 9 27 23 0 14 -8 21 -27 23
-24 3 -28 0 -28 -23z"/>
<path d="M1445 2260 c-3 -5 3 -10 15 -10 12 0 18 5 15 10 -3 6 -10 10 -15 10
-5 0 -12 -4 -15 -10z"/>
<path d="M1670 2210 c0 -5 9 -10 20 -10 11 0 20 5 20 10 0 6 -9 10 -20 10 -11
0 -20 -4 -20 -10z"/>
<path d="M1810 2235 c0 -29 3 -36 18 -33 11 2 17 13 17 33 0 20 -6 31 -17 33
-15 3 -18 -4 -18 -33z"/>
<path d="M1947 2264 c-13 -14 -7 -52 10 -58 25 -10 51 20 37 42 -12 19 -36 27
-47 16z"/>
<path d="M5035 2260 c-4 -6 5 -10 20 -10 15 0 24 4 20 10 -3 6 -12 10 -20 10
-8 0 -17 -4 -20 -10z"/>
<path d="M5465 2260 c-3 -5 3 -10 15 -10 12 0 18 5 15 10 -3 6 -10 10 -15 10
-5 0 -12 -4 -15 -10z"/>
<path d="M5605 2260 c-3 -5 3 -10 15 -10 12 0 18 5 15 10 -3 6 -10 10 -15 10
-5 0 -12 -4 -15 -10z"/>
<path d="M8345 2260 c-4 -6 5 -10 20 -10 15 0 24 4 20 10 -3 6 -12 10 -20 10
-8 0 -17 -4 -20 -10z"/>
<path d="M8485 2260 c-3 -5 3 -10 15 -10 12 0 18 5 15 10 -3 6 -10 10 -15 10
-5 0 -12 -4 -15 -10z"/>
<path d="M8835 2260 c-3 -5 3 -10 15 -10 12 0 18 5 15 10 -3 6 -10 10 -15 10
-5 0 -12 -4 -15 -10z"/>
<path d="M1652 1194 c-24 -17 -30 -62 -10 -82 7 -7 24 -12 38 -12 33 0 50 17
50 51 0 24 -30 59 -50 59 -3 0 -16 -7 -28 -16z m58 -19 c26 -32 -13 -81 -47
-59 -35 22 -23 74 17 74 10 0 23 -7 30 -15z"/>
<path d="M5062 1194 c-24 -17 -30 -62 -10 -82 7 -7 24 -12 38 -12 33 0 50 17
50 51 0 24 -30 59 -50 59 -3 0 -16 -7 -28 -16z m58 -19 c26 -32 -13 -81 -47
-59 -35 22 -23 74 17 74 10 0 23 -7 30 -15z"/>
<path d="M8462 1194 c-24 -17 -30 -62 -10 -82 7 -7 24 -12 38 -12 33 0 50 17
50 51 0 24 -30 59 -50 59 -3 0 -16 -7 -28 -16z m58 -19 c26 -32 -13 -81 -47
-59 -35 22 -23 74 17 74 10 0 23 -7 30 -15z"/>
<path d="M1567 563 c-13 -12 -7 -51 9 -57 29 -11 34 -6 34 29 0 27 -4 35 -18
35 -10 0 -22 -3 -25 -7z"/>
<path d="M4797 563 c-13 -12 -7 -51 9 -57 29 -11 34 -6 34 29 0 27 -4 35 -18
35 -10 0 -22 -3 -25 -7z"/>
<path d="M8324 556 c-9 -24 0 -51 19 -54 14 -3 17 4 17 32 0 26 -4 36 -15 36
-9 0 -18 -6 -21 -14z"/>
<path d="M1350 585 c0 -18 5 -25 19 -25 26 0 44 23 29 38 -22 22 -48 14 -48
-13z"/>
<path d="M4580 585 c0 -22 4 -26 23 -23 14 2 22 10 22 23 0 13 -8 21 -22 23
-19 3 -23 -1 -23 -23z"/>
<path d="M8110 585 c0 -22 4 -26 23 -23 14 2 22 10 22 23 0 13 -8 21 -22 23
-19 3 -23 -1 -23 -23z"/>
<path d="M1709 554 c-9 -11 -10 -20 -2 -32 17 -28 38 -20 41 16 4 36 -16 44
-39 16z"/>
<path d="M1855 560 c-3 -5 3 -10 15 -10 12 0 18 5 15 10 -3 6 -10 10 -15 10
-5 0 -12 -4 -15 -10z"/>
<path d="M4942 561 c-21 -13 -11 -56 13 -56 15 0 21 8 23 33 3 33 -9 41 -36
23z"/>
<path d="M4938 463 c6 -2 18 -2 25 0 6 3 1 5 -13 5 -14 0 -19 -2 -12 -5z"/>
<path d="M5075 560 c-4 -6 5 -10 20 -10 15 0 24 4 20 10 -3 6 -12 10 -20 10
-8 0 -17 -4 -20 -10z"/>
<path d="M5214 556 c-10 -26 0 -51 21 -51 16 0 20 7 20 30 0 33 -30 49 -41 21z"/>
<path d="M5557 564 c-13 -14 -7 -52 10 -58 25 -10 51 20 37 42 -12 19 -36 27
-47 16z"/>
<path d="M8464 556 c-9 -24 0 -51 19 -54 14 -3 17 4 17 32 0 26 -4 36 -15 36
-9 0 -18 -6 -21 -14z"/>
<path d="M8605 560 c-4 -6 5 -10 20 -10 15 0 24 4 20 10 -3 6 -12 10 -20 10
-8 0 -17 -4 -20 -10z"/>
<path d="M8744 556 c-10 -26 0 -51 21 -51 16 0 20 7 20 30 0 33 -30 49 -41 21z"/>
</g>
</svg>
