<?xml version="1.0" standalone="no"?>
<!DOCTYPE svg PUBLIC "-//W3C//DTD SVG 20010904//EN"
 "http://www.w3.org/TR/2001/REC-SVG-20010904/DTD/svg10.dtd">
<svg version="1.0" xmlns="http://www.w3.org/2000/svg"
 width="835.000000pt" height="627.000000pt" viewBox="0 0 835.000000 627.000000"
 preserveAspectRatio="xMidYMid meet">

<g transform="translate(0.000000,627.000000) scale(0.100000,-0.100000)"
fill="#000000" stroke="none">
<path d="M2860 5555 c0 -10 10 -15 30 -15 l30 0 0 -80 c0 -64 3 -80 15 -80 12
0 15 15 15 79 0 79 0 80 27 83 14 2 28 9 31 16 3 9 -16 12 -72 12 -61 0 -76
-3 -76 -15z"/>
<path d="M3250 5476 l0 -96 50 0 c68 0 100 30 100 93 0 66 -23 89 -93 95 l-57
4 0 -96z m110 49 c6 -8 12 -31 13 -51 1 -42 -29 -74 -69 -74 -23 0 -24 3 -24
70 l0 70 34 0 c18 0 39 -7 46 -15z"/>
<path d="M3670 5475 l0 -95 55 0 c65 0 74 17 13 22 l-43 3 -3 83 c-4 114 -22
104 -22 -13z"/>
<path d="M3800 5555 c0 -9 5 -15 11 -13 6 2 11 8 11 13 0 5 -5 11 -11 13 -6 2
-11 -4 -11 -13z"/>
<path d="M4191 5548 c-5 -13 -20 -52 -35 -87 -30 -73 -31 -81 -13 -81 7 0 18
14 24 30 9 25 17 30 43 30 26 0 34 -5 43 -30 10 -26 37 -43 37 -22 0 20 -68
176 -78 180 -6 2 -16 -7 -21 -20z m38 -75 c1 -7 -8 -13 -19 -13 -23 0 -25 12
-8 43 11 21 11 21 19 2 4 -11 8 -26 8 -32z"/>
<path d="M3986 5528 c-13 -14 -15 -23 -8 -26 7 -2 12 -26 12 -57 0 -43 4 -56
19 -65 21 -10 51 -4 51 11 0 5 -9 9 -20 9 -17 0 -20 7 -20 50 0 43 3 50 20 50
11 0 20 5 20 10 0 6 -9 10 -20 10 -11 0 -20 7 -20 15 0 21 -12 19 -34 -7z"/>
<path d="M3037 5502 c-24 -26 -22 -85 3 -107 63 -57 145 31 94 103 -19 28 -74
30 -97 4z m72 -16 c7 -8 11 -30 9 -48 -3 -29 -6 -33 -33 -33 -27 0 -30 4 -33
33 -2 19 -1 40 2 48 7 18 40 18 55 0z"/>
<path d="M3446 5498 c-40 -57 -3 -124 66 -119 46 3 67 91 30 124 -27 25 -78
22 -96 -5z m84 -23 c14 -37 -3 -75 -34 -75 -25 0 -36 16 -36 54 0 47 54 64 70
21z"/>
<path d="M3800 5450 c0 -40 4 -70 10 -70 6 0 10 30 10 70 0 40 -4 70 -10 70
-6 0 -10 -30 -10 -70z"/>
<path d="M3860 5505 c-18 -21 -6 -43 35 -62 50 -24 47 -47 -5 -40 -43 5 -53
-6 -20 -23 23 -12 64 -4 80 16 18 21 3 49 -36 67 -40 20 -36 41 7 35 20 -3 29
0 29 9 0 18 -74 17 -90 -2z"/>
<path d="M4310 5413 c0 -79 3 -104 13 -101 6 3 13 19 15 37 3 29 6 32 28 27
54 -14 95 70 58 122 -13 18 -24 22 -65 21 l-49 -2 0 -104z m89 73 c28 -34 -5
-97 -43 -83 -16 6 -24 76 -9 90 11 12 40 8 52 -7z"/>
<path d="M4470 5413 c0 -79 3 -104 13 -101 6 3 13 19 15 37 3 29 6 32 28 27
54 -14 95 70 58 122 -13 18 -24 22 -65 21 l-49 -2 0 -104z m89 73 c28 -34 -5
-97 -43 -83 -16 6 -24 76 -9 90 11 12 40 8 52 -7z"/>
<path d="M3992 5170 c0 -14 2 -19 5 -12 2 6 2 18 0 25 -3 6 -5 1 -5 -13z"/>
<path d="M4630 5170 c-12 -22 -12 -22 25 -23 14 -1 25 3 25 9 -1 5 -10 8 -20
6 -22 -4 -27 13 -7 21 9 4 9 6 0 6 -7 1 -17 -8 -23 -19z"/>
<path d="M4688 5183 c7 -3 16 -2 19 1 4 3 -2 6 -13 5 -11 0 -14 -3 -6 -6z"/>
<path d="M4962 5170 c0 -14 2 -19 5 -12 2 6 2 18 0 25 -3 6 -5 1 -5 -13z"/>
<path d="M2884 5166 c-3 -8 -4 -21 -1 -28 3 -7 6 -3 6 10 1 15 7 22 22 22 16
0 20 -5 17 -26 -4 -34 -34 -56 -48 -34 -8 13 -10 12 -10 -2 0 -11 8 -18 19
-18 49 0 71 81 23 88 -13 2 -24 -3 -28 -12z"/>
<path d="M3191 5164 c0 -11 3 -14 6 -6 3 7 2 16 -1 19 -3 4 -6 -2 -5 -13z"/>
<path d="M3381 5164 c0 -11 3 -14 6 -6 3 7 2 16 -1 19 -3 4 -6 -2 -5 -13z"/>
<path d="M5290 5162 c10 -20 8 -28 -12 -50 l-23 -27 23 20 c20 16 25 17 33 5
8 -11 9 -9 4 8 -5 16 -1 31 11 45 18 21 18 22 -1 5 -17 -16 -19 -16 -32 0 -12
15 -13 14 -3 -6z"/>
<path d="M5351 5164 c0 -11 3 -14 6 -6 3 7 2 16 -1 19 -3 4 -6 -2 -5 -13z"/>
<path d="M3596 5161 c-4 -5 -2 -12 3 -15 5 -4 12 -2 15 3 4 5 2 12 -3 15 -5 4
-12 2 -15 -3z"/>
<path d="M4296 5161 c-4 -5 -2 -12 3 -15 5 -4 12 -2 15 3 4 5 2 12 -3 15 -5 4
-12 2 -15 -3z"/>
<path d="M2966 5144 c-10 -25 -7 -29 7 -9 8 10 19 15 25 11 7 -4 12 -2 12 3 0
17 -37 13 -44 -5z"/>
<path d="M3110 5136 c0 -19 0 -19 13 -1 8 10 19 15 25 11 7 -4 12 -2 12 3 0 6
-11 10 -25 9 -18 -2 -25 -8 -25 -22z"/>
<path d="M3226 5151 c-4 -5 3 -7 14 -4 23 6 26 13 6 13 -8 0 -17 -4 -20 -9z"/>
<path d="M3320 5145 c-17 -20 -8 -49 15 -52 16 -1 16 -1 3 3 -26 8 -22 43 5
54 15 6 17 9 6 9 -9 1 -22 -6 -29 -14z"/>
<path d="M3411 5144 c0 -11 3 -14 6 -6 3 7 2 16 -1 19 -3 4 -6 -2 -5 -13z"/>
<path d="M3440 5139 c-7 -11 -9 -23 -7 -26 3 -2 8 5 12 16 3 11 14 22 23 24
16 4 16 5 0 6 -10 0 -22 -8 -28 -20z"/>
<path d="M3496 5129 c-3 -18 -4 -34 -1 -37 3 -3 5 2 5 11 0 22 9 21 27 0 8
-10 12 -12 8 -5 -3 6 -12 23 -19 37 l-13 26 -7 -32z"/>
<path d="M3646 5151 c-4 -5 3 -7 15 -4 17 5 20 2 17 -18 -4 -29 -34 -38 -41
-12 -4 17 -5 17 -6 0 0 -10 6 -20 14 -23 21 -9 47 15 43 40 -3 22 -32 34 -42
17z"/>
<path d="M3746 5134 c-4 -14 -5 -28 -3 -31 3 -2 8 8 11 23 4 14 5 28 3 31 -3
2 -8 -8 -11 -23z"/>
<path d="M3777 5154 c8 -3 10 -18 8 -37 l-5 -32 10 29 c10 32 6 46 -13 45 -9
0 -9 -2 0 -5z"/>
<path d="M3810 5156 c0 -2 7 -7 16 -10 8 -3 12 -2 9 4 -6 10 -25 14 -25 6z"/>
<path d="M3866 5151 c-4 -5 3 -7 15 -4 19 5 21 3 15 -28 -5 -30 -5 -31 4 -10
6 14 8 31 6 38 -6 15 -32 18 -40 4z"/>
<path d="M4010 5145 c-7 -8 -16 -12 -21 -9 -5 3 -9 -2 -9 -11 0 -9 4 -14 9
-10 6 3 15 -3 21 -12 9 -16 10 -15 5 5 -4 13 -1 29 5 37 7 8 10 15 7 15 -2 0
-10 -7 -17 -15z"/>
<path d="M4080 5140 c-13 -25 -7 -50 12 -50 10 0 10 2 -1 9 -17 11 -5 51 16
51 11 0 14 -7 10 -26 -3 -16 -1 -22 5 -16 14 14 5 46 -14 50 -9 2 -22 -6 -28
-18z"/>
<path d="M4180 5156 c0 -2 7 -7 16 -10 8 -3 12 -2 9 4 -6 10 -25 14 -25 6z"/>
<path d="M4346 5151 c-4 -5 3 -7 14 -4 23 6 26 13 6 13 -8 0 -17 -4 -20 -9z"/>
<path d="M4439 5128 c4 -32 5 -32 11 -8 7 26 4 40 -9 40 -4 0 -5 -15 -2 -32z"/>
<path d="M4556 5151 c-4 -5 3 -7 15 -4 17 5 20 2 17 -18 -4 -29 -34 -38 -41
-12 -4 17 -5 17 -6 0 0 -10 6 -20 14 -23 21 -9 47 15 43 40 -3 22 -32 34 -42
17z"/>
<path d="M4776 5151 c-4 -5 3 -7 14 -4 23 6 26 13 6 13 -8 0 -17 -4 -20 -9z"/>
<path d="M4831 5144 c0 -11 3 -14 6 -6 3 7 2 16 -1 19 -3 4 -6 -2 -5 -13z"/>
<path d="M4900 5145 c-7 -9 -10 -18 -6 -22 3 -3 6 -1 6 6 0 6 10 16 23 21 15
6 17 9 6 9 -9 1 -22 -6 -29 -14z"/>
<path d="M4980 5145 c-7 -8 -16 -12 -21 -9 -5 3 -9 -2 -9 -11 0 -9 4 -14 9
-10 6 3 15 -3 21 -12 9 -16 10 -15 5 5 -4 13 -1 29 5 37 7 8 10 15 7 15 -2 0
-10 -7 -17 -15z"/>
<path d="M5056 5151 c-3 -5 3 -7 14 -4 29 8 27 -35 -2 -47 -16 -6 -18 -9 -7
-9 22 -1 42 24 37 46 -4 20 -33 30 -42 14z"/>
<path d="M5150 5156 c0 -2 7 -7 16 -10 8 -3 12 -2 9 4 -6 10 -25 14 -25 6z"/>
<path d="M3934 5135 c-3 -8 -4 -20 -2 -27 3 -7 7 -1 10 15 6 29 1 36 -8 12z"/>
<path d="M4154 5135 c-3 -8 -4 -20 -2 -27 3 -7 7 -1 10 15 6 29 1 36 -8 12z"/>
<path d="M4404 5135 c-3 -8 -4 -20 -2 -27 3 -7 7 -1 10 15 6 29 1 36 -8 12z"/>
<path d="M4861 5134 c0 -11 3 -14 6 -6 3 7 2 16 -1 19 -3 4 -6 -2 -5 -13z"/>
<path d="M5124 5135 c-3 -8 -4 -20 -2 -27 3 -7 7 -1 10 15 6 29 1 36 -8 12z"/>
<path d="M3031 5118 c-1 -24 3 -27 24 -26 14 1 25 9 25 17 0 12 -3 12 -12 3
-18 -18 -26 -15 -31 11 -4 19 -4 18 -6 -5z"/>
<path d="M3232 5133 c-27 -5 -27 -37 1 -39 12 -1 13 -1 2 3 -19 6 -20 23 -1
23 8 0 18 5 21 10 3 6 5 9 3 9 -2 -1 -13 -4 -26 -6z"/>
<path d="M4262 5120 c0 -14 2 -19 5 -12 2 6 2 18 0 25 -3 6 -5 1 -5 -13z"/>
<path d="M4352 5133 c-27 -5 -27 -37 1 -39 12 -1 13 -1 2 3 -19 6 -20 23 -1
23 8 0 18 5 21 10 3 6 5 9 3 9 -2 -1 -13 -4 -26 -6z"/>
<path d="M3146 5115 c-4 -11 -12 -14 -26 -10 -11 3 -20 3 -20 -2 0 -15 38 -12
51 3 6 8 10 17 7 20 -3 3 -8 -2 -12 -11z"/>
<path d="M3181 5114 c0 -11 3 -14 6 -6 3 7 2 16 -1 19 -3 4 -6 -2 -5 -13z"/>
<path d="M3371 5114 c0 -11 3 -14 6 -6 3 7 2 16 -1 19 -3 4 -6 -2 -5 -13z"/>
<path d="M3590 5110 c0 -11 4 -20 9 -20 5 0 7 9 4 20 -3 11 -7 20 -9 20 -2 0
-4 -9 -4 -20z"/>
<path d="M3822 5110 c0 -14 2 -19 5 -12 2 6 2 18 0 25 -3 6 -5 1 -5 -13z"/>
<path d="M3853 5116 c1 -11 9 -21 17 -23 10 -3 11 -2 4 4 -6 4 -14 15 -17 23
-5 11 -6 9 -4 -4z"/>
<path d="M4192 5110 c0 -14 2 -19 5 -12 2 6 2 18 0 25 -3 6 -5 1 -5 -13z"/>
<path d="M4290 5110 c0 -11 4 -20 9 -20 5 0 7 9 4 20 -3 11 -7 20 -9 20 -2 0
-4 -9 -4 -20z"/>
<path d="M4481 5114 c0 -11 3 -14 6 -6 3 7 2 16 -1 19 -3 4 -6 -2 -5 -13z"/>
<path d="M4621 5114 c0 -11 3 -14 6 -6 3 7 2 16 -1 19 -3 4 -6 -2 -5 -13z"/>
<path d="M4764 5110 c1 -8 10 -16 21 -17 15 -1 15 0 3 3 -9 3 -19 11 -21 17
-2 7 -3 5 -3 -3z"/>
<path d="M5162 5110 c0 -14 2 -19 5 -12 2 6 2 18 0 25 -3 6 -5 1 -5 -13z"/>
<path d="M3000 5111 c0 -8 -8 -11 -20 -8 -11 3 -18 1 -14 -4 3 -5 11 -9 19 -9
16 0 30 18 21 27 -3 4 -6 1 -6 -6z"/>
<path d="M3401 5104 c0 -11 3 -14 6 -6 3 7 2 16 -1 19 -3 4 -6 -2 -5 -13z"/>
<path d="M4661 5104 c0 -11 3 -14 6 -6 3 7 2 16 -1 19 -3 4 -6 -2 -5 -13z"/>
<path d="M4821 5104 c0 -11 3 -14 6 -6 3 7 2 16 -1 19 -3 4 -6 -2 -5 -13z"/>
<path d="M4898 5098 c5 -5 16 -8 23 -6 8 3 3 7 -10 11 -17 4 -21 3 -13 -5z"/>
<path d="M3448 5093 c7 -3 16 -2 19 1 4 3 -2 6 -13 5 -11 0 -14 -3 -6 -6z"/>
<path d="M4645 5070 c-3 -5 -1 -10 4 -10 6 0 11 5 11 10 0 6 -2 10 -4 10 -3 0
-8 -4 -11 -10z"/>
<path d="M3172 5010 c0 -14 2 -19 5 -12 2 6 2 18 0 25 -3 6 -5 1 -5 -13z"/>
<path d="M2876 5001 c-4 -5 -2 -12 3 -15 5 -4 12 -2 15 3 4 5 2 12 -3 15 -5 4
-12 2 -15 -3z"/>
<path d="M3071 4994 c0 -11 3 -14 6 -6 3 7 2 16 -1 19 -3 4 -6 -2 -5 -13z"/>
<path d="M3616 5001 c-4 -5 -2 -12 3 -15 5 -4 12 -2 15 3 4 5 2 12 -3 15 -5 4
-12 2 -15 -3z"/>
<path d="M2926 4991 c-4 -5 3 -7 15 -4 17 5 20 2 17 -18 -4 -29 -34 -38 -41
-12 -4 17 -5 17 -6 0 0 -10 6 -20 14 -23 21 -9 47 15 43 40 -3 22 -32 34 -42
17z"/>
<path d="M3032 4988 c-7 -7 -12 -22 -12 -35 0 -18 5 -22 25 -21 14 1 25 9 25
17 0 12 -3 12 -12 3 -18 -18 -28 -15 -28 8 0 10 8 24 18 29 9 6 12 11 7 11 -6
0 -16 -5 -23 -12z"/>
<path d="M3100 4981 c-5 -11 -10 -22 -10 -24 0 -8 40 5 46 14 3 5 -2 6 -10 3
-9 -3 -16 -1 -16 4 0 6 8 13 18 15 16 4 16 5 0 6 -10 0 -22 -8 -28 -18z"/>
<path d="M3200 4985 c-17 -20 -8 -49 15 -52 16 -1 16 -1 3 3 -24 7 -23 20 2
27 22 6 28 37 6 37 -7 0 -19 -7 -26 -15z m30 -5 c0 -5 -7 -10 -16 -10 -8 0
-12 5 -9 10 3 6 10 10 16 10 5 0 9 -4 9 -10z"/>
<path d="M3258 4978 c4 -16 7 -18 10 -8 3 8 10 18 16 22 6 5 2 8 -11 8 -17 0
-20 -4 -15 -22z"/>
<path d="M3312 4988 c-17 -17 -15 -28 6 -28 13 0 14 2 3 9 -10 7 -10 10 -1 16
7 4 17 1 22 -6 8 -12 9 -12 6 0 -6 20 -21 24 -36 9z"/>
<path d="M3400 4980 c-13 -25 -7 -50 12 -50 10 0 10 2 -1 9 -17 11 -5 51 16
51 11 0 14 -7 10 -26 -3 -16 -1 -22 5 -16 14 14 5 46 -14 50 -9 2 -22 -6 -28
-18z"/>
<path d="M3500 4996 c0 -2 7 -7 16 -10 8 -3 12 -2 9 4 -6 10 -25 14 -25 6z"/>
<path d="M3666 4991 c-4 -5 3 -7 14 -4 23 6 26 13 6 13 -8 0 -17 -4 -20 -9z"/>
<path d="M3759 4968 c4 -32 5 -32 11 -8 7 26 4 40 -9 40 -4 0 -5 -15 -2 -32z"/>
<path d="M3900 4980 c-13 -25 -7 -50 12 -50 10 0 10 2 -1 9 -17 11 -5 51 16
51 11 0 14 -7 10 -26 -3 -16 -1 -22 5 -16 14 14 5 46 -14 50 -9 2 -22 -6 -28
-18z"/>
<path d="M4000 4996 c0 -2 7 -7 16 -10 8 -3 12 -2 9 4 -6 10 -25 14 -25 6z"/>
<path d="M4056 4991 c-4 -5 3 -7 15 -4 19 5 21 3 15 -28 -5 -30 -5 -31 4 -10
6 14 8 31 6 38 -6 15 -32 18 -40 4z"/>
<path d="M4166 4991 c-4 -5 3 -7 15 -4 19 5 21 3 15 -28 -5 -30 -5 -31 4 -10
6 14 8 31 6 38 -6 15 -32 18 -40 4z"/>
<path d="M4291 4987 c-6 -6 -11 -21 -11 -34 0 -18 5 -22 25 -21 14 1 25 9 25
17 0 12 -3 12 -12 3 -19 -19 -30 -14 -26 11 2 16 9 21 26 20 12 -2 22 1 22 5
0 12 -36 12 -49 -1z"/>
<path d="M4365 4990 c-3 -6 1 -7 9 -4 9 3 16 1 16 -4 0 -6 -8 -13 -17 -15 -17
-4 -17 -5 -1 -6 10 0 22 8 28 19 9 17 8 20 -9 20 -11 0 -23 -4 -26 -10z"/>
<path d="M4488 4978 c4 -16 7 -18 10 -8 3 8 10 18 16 22 6 5 2 8 -11 8 -17 0
-20 -4 -15 -22z"/>
<path d="M4542 4988 c-17 -17 -15 -28 6 -28 13 0 14 2 3 9 -10 7 -10 10 -1 16
7 4 17 1 22 -6 8 -12 9 -12 6 0 -6 20 -21 24 -36 9z"/>
<path d="M4596 4974 c-4 -14 -5 -28 -3 -31 3 -2 8 8 11 23 4 14 5 28 3 31 -3
2 -8 -8 -11 -23z"/>
<path d="M4627 4994 c8 -3 10 -18 8 -37 l-5 -32 10 29 c10 32 6 46 -13 45 -9
0 -9 -2 0 -5z"/>
<path d="M4660 4996 c0 -2 7 -7 16 -10 8 -3 12 -2 9 4 -6 10 -25 14 -25 6z"/>
<path d="M4718 4993 c6 -2 18 -2 25 0 6 3 1 5 -13 5 -14 0 -19 -2 -12 -5z"/>
<path d="M4797 4984 c3 -9 9 -12 12 -7 3 4 10 11 15 16 5 4 0 7 -12 7 -15 0
-20 -4 -15 -16z"/>
<path d="M4846 4991 c-3 -5 3 -7 14 -4 29 8 27 -35 -2 -47 -16 -6 -18 -9 -7
-9 22 -1 42 24 37 46 -4 20 -33 30 -42 14z"/>
<path d="M4950 4982 c0 -12 3 -12 18 -1 9 7 19 14 21 16 2 1 -6 1 -18 0 -11
-1 -21 -8 -21 -15z"/>
<path d="M5006 4991 c-4 -5 3 -7 14 -4 23 6 26 13 6 13 -8 0 -17 -4 -20 -9z"/>
<path d="M5066 4984 c-10 -25 -7 -29 7 -9 8 10 19 15 25 11 7 -4 12 -2 12 3 0
17 -37 13 -44 -5z"/>
<path d="M5136 4974 c-4 -14 -5 -28 -3 -31 3 -2 8 8 11 23 4 14 5 28 3 31 -3
2 -8 -8 -11 -23z"/>
<path d="M5196 4991 c-4 -5 3 -7 15 -4 19 5 21 3 15 -28 -5 -30 -5 -31 4 -10
6 14 8 31 6 38 -6 15 -32 18 -40 4z"/>
<path d="M5272 4988 c-17 -17 -15 -28 6 -28 13 0 14 2 3 9 -10 7 -10 10 -1 16
7 4 17 1 22 -6 8 -12 9 -12 6 0 -6 20 -21 24 -36 9z"/>
<path d="M5326 4974 c-4 -14 -5 -28 -3 -31 3 -2 8 8 11 23 4 14 5 28 3 31 -3
2 -8 -8 -11 -23z"/>
<path d="M3474 4975 c-3 -8 -4 -20 -2 -27 3 -7 7 -1 10 15 6 29 1 36 -8 12z"/>
<path d="M3724 4975 c-3 -8 -4 -20 -2 -27 3 -7 7 -1 10 15 6 29 1 36 -8 12z"/>
<path d="M3974 4975 c-3 -8 -4 -20 -2 -27 3 -7 7 -1 10 15 6 29 1 36 -8 12z"/>
<path d="M4234 4975 c-3 -8 -4 -20 -2 -27 3 -7 7 -1 10 15 6 29 1 36 -8 12z"/>
<path d="M3161 4964 c0 -11 3 -14 6 -6 3 7 2 16 -1 19 -3 4 -6 -2 -5 -13z"/>
<path d="M3582 4960 c0 -14 2 -19 5 -12 2 6 2 18 0 25 -3 6 -5 1 -5 -13z"/>
<path d="M3672 4973 c-27 -5 -27 -37 1 -39 12 -1 13 -1 2 3 -19 6 -20 23 -1
23 8 0 18 5 21 10 3 6 5 9 3 9 -2 -1 -13 -4 -26 -6z"/>
<path d="M4720 4968 c14 -17 12 -26 -7 -31 -16 -4 -16 -5 -1 -6 25 -2 33 19
14 35 -9 8 -11 9 -6 2z"/>
<path d="M5012 4973 c-27 -5 -27 -37 1 -39 12 -1 13 -1 2 3 -19 6 -20 23 -1
23 8 0 18 5 21 10 3 6 5 9 3 9 -2 -1 -13 -4 -26 -6z"/>
<path d="M2870 4950 c0 -11 4 -20 9 -20 5 0 7 9 4 20 -3 11 -7 20 -9 20 -2 0
-4 -9 -4 -20z"/>
<path d="M3512 4950 c0 -14 2 -19 5 -12 2 6 2 18 0 25 -3 6 -5 1 -5 -13z"/>
<path d="M3610 4950 c0 -11 4 -20 9 -20 5 0 7 9 4 20 -3 11 -7 20 -9 20 -2 0
-4 -9 -4 -20z"/>
<path d="M3801 4954 c0 -11 3 -14 6 -6 3 7 2 16 -1 19 -3 4 -6 -2 -5 -13z"/>
<path d="M4012 4950 c0 -14 2 -19 5 -12 2 6 2 18 0 25 -3 6 -5 1 -5 -13z"/>
<path d="M4043 4956 c1 -11 9 -21 17 -23 10 -3 11 -2 4 4 -6 4 -14 15 -17 23
-5 11 -6 9 -4 -4z"/>
<path d="M4153 4956 c1 -11 9 -21 17 -23 10 -3 11 -2 4 4 -6 4 -14 15 -17 23
-5 11 -6 9 -4 -4z"/>
<path d="M4451 4954 c0 -11 3 -14 6 -6 3 7 2 16 -1 19 -3 4 -6 -2 -5 -13z"/>
<path d="M4672 4950 c0 -14 2 -19 5 -12 2 6 2 18 0 25 -3 6 -5 1 -5 -13z"/>
<path d="M5183 4956 c1 -11 9 -21 17 -23 10 -3 11 -2 4 4 -6 4 -14 15 -17 23
-5 11 -6 9 -4 -4z"/>
<path d="M4790 4951 c0 -10 19 -25 25 -20 1 2 -3 10 -11 17 -8 7 -14 8 -14 3z"/>
<path d="M4941 4944 c0 -11 3 -14 6 -6 3 7 2 16 -1 19 -3 4 -6 -2 -5 -13z"/>
<path d="M5100 4951 c0 -8 -8 -11 -20 -8 -11 3 -18 1 -14 -4 3 -5 11 -9 19 -9
16 0 30 18 21 27 -3 4 -6 1 -6 -6z"/>
<path d="M3308 4938 c5 -5 16 -8 23 -6 8 3 3 7 -10 11 -17 4 -21 3 -13 -5z"/>
<path d="M4346 4933 c-11 -27 -6 -33 22 -32 23 2 24 2 5 6 -13 2 -23 9 -23 15
0 6 11 8 25 6 28 -6 25 7 -4 15 -12 3 -22 -1 -25 -10z"/>
<path d="M4538 4938 c5 -5 16 -8 23 -6 8 3 3 7 -10 11 -17 4 -21 3 -13 -5z"/>
<path d="M5268 4938 c5 -5 16 -8 23 -6 8 3 3 7 -10 11 -17 4 -21 3 -13 -5z"/>
<path d="M3108 4933 c6 -2 18 -2 25 0 6 3 1 5 -13 5 -14 0 -19 -2 -12 -5z"/>
<path d="M2864 4737 c-2 -7 -3 -67 -2 -133 l3 -119 960 0 960 0 0 130 0 130
-958 3 c-783 2 -959 0 -963 -11z m1916 -122 l0 -125 -955 0 -955 0 0 125 0
125 955 0 955 0 0 -125z"/>
</g>
</svg>
